<?xml version="1.0" standalone="no"?>
<!DOCTYPE svg PUBLIC "-//W3C//DTD SVG 1.1//EN" "http://www.w3.org/Graphics/SVG/1.1/DTD/svg11.dtd" >
<svg xmlns="http://www.w3.org/2000/svg" xmlns:xlink="http://www.w3.org/1999/xlink" version="1.1">
<metadata>
Created by FontForge 20190801 at Wed May 30 19:40:41 2018
 By www-data
Copyright (c) 2014 by atipo. All rights reserved.
</metadata>
<defs>
<font id="GeomanistRegular" horiz-adv-x="215" >
  <font-face 
    font-family="GeomanistRegular"
    font-weight="400"
    font-stretch="normal"
    units-per-em="1000"
    panose-1="2 0 5 3 0 0 0 2 0 4"
    ascent="800"
    descent="-200"
    x-height="520"
    cap-height="700"
    bbox="-167 -237 1079 998"
    underline-thickness="50"
    underline-position="-100"
    unicode-range="U+0020-F6C3"
  />
<missing-glyph horiz-adv-x="508" 
d="M4 700h500v-700h-500v700zM424 650h-340l170 -255zM224 350l-170 255v-510zM454 95v510l-170 -255zM424 50l-170 255l-170 -255h340z" />
    <glyph glyph-name="ellipsis" unicode="&#x2e;&#x2e;&#x2e;" horiz-adv-x="675" 
d="M49 43q0 23 17 39.5t40 16.5t39.5 -16.5t16.5 -39.5t-16.5 -39.5t-39.5 -16.5t-40 16.5t-17 39.5zM281 43q0 23 16.5 39.5t39.5 16.5t40 -16.5t17 -39.5t-17 -39.5t-40 -16.5t-39.5 16.5t-16.5 39.5zM512 43q0 23 17 39.5t40 16.5t39.5 -16.5t16.5 -39.5t-16.5 -39.5
t-39.5 -16.5t-40 16.5t-17 39.5z" />
    <glyph glyph-name=".notdef" horiz-adv-x="508" 
d="M4 700h500v-700h-500v700zM424 650h-340l170 -255zM224 350l-170 255v-510zM454 95v510l-170 -255zM424 50l-170 255l-170 -255h340z" />
    <glyph glyph-name=".null" horiz-adv-x="0" 
 />
    <glyph glyph-name="nonmarkingreturn" horiz-adv-x="333" 
 />
    <glyph glyph-name="space" unicode=" " horiz-adv-x="254" 
 />
    <glyph glyph-name="exclam" unicode="!" horiz-adv-x="258" 
d="M88 700h83l-7 -524h-69zM73 43q0 23 17 39.5t40 16.5t39.5 -16.5t16.5 -39.5t-16.5 -39.5t-39.5 -16.5t-40 16.5t-17 39.5z" />
    <glyph glyph-name="quotedbl" unicode="&#x22;" horiz-adv-x="298" 
d="M48 700h70l-6 -198h-58zM180 700h70l-6 -198h-59z" />
    <glyph glyph-name="numbersign" unicode="#" horiz-adv-x="648" 
d="M146 192h-116l13 65h116l39 185h-115l12 65h117l40 193h71l-39 -193h144l40 193h71l-39 -193h117l-12 -65h-119l-38 -185h118l-13 -65h-119l-40 -192h-71l39 192h-145l-40 -192h-71zM376 257l39 185h-145l-39 -185h145z" />
    <glyph glyph-name="dollar" unicode="$" horiz-adv-x="506" 
d="M103 171q38 -109 153 -109q57 0 92 31t35 85q0 41 -24.5 71.5t-60.5 48t-79 39.5t-79 43.5t-60.5 61t-24.5 92.5q0 70 45.5 119t123.5 57v56h61v-55q69 -9 110.5 -48.5t57.5 -83.5l-68 -28q-40 88 -131 88q-56 0 -87 -30t-31 -75q0 -44 34 -75.5t82 -53.5t96.5 -47
t82.5 -69t34 -106q0 -77 -48.5 -131t-131.5 -63v-75h-61v75q-79 7 -125.5 51t-64.5 101z" />
    <glyph glyph-name="percent" unicode="%" horiz-adv-x="757" 
d="M194 407q-66 0 -110 44t-44 108t44 109t109 45q68 0 113 -44.5t45 -109.5q0 -64 -45 -108t-112 -44zM604 700h82l-534 -700h-81zM195 469q40 0 64 26t24 64q0 39 -25 65.5t-64 26.5q-38 0 -62.5 -26.5t-24.5 -65.5q0 -38 25 -64t63 -26zM405 139q0 64 44 109t110 45
q67 0 112 -44.5t45 -109.5q0 -64 -45 -108t-111 -44q-67 0 -111 43.5t-44 108.5zM472 139q0 -39 24.5 -65t63.5 -26q40 0 64 26t24 65t-24.5 65t-64.5 26q-38 0 -62.5 -26t-24.5 -65z" />
    <glyph glyph-name="ampersand" unicode="&#x26;" horiz-adv-x="627" 
d="M484 65q-78 -78 -204 -78q-111 0 -177 59t-66 148q0 119 123 189q-76 78 -76 155q0 72 51 123.5t140 51.5q90 0 142.5 -48.5t52.5 -127.5q0 -62 -40 -109t-117 -91l166 -160q20 36 26.5 69.5t6.5 87.5h76q0 -131 -52 -213l73 -73l-57 -55zM159 535q0 -30 16.5 -59
t35 -47.5t51.5 -46.5q133 67 133 153q0 49 -33 80t-86 31q-51 0 -84 -31.5t-33 -79.5zM280 59q92 0 151 61l-219 211q-42 -18 -69 -52t-27 -81q0 -64 47.5 -101.5t116.5 -37.5z" />
    <glyph glyph-name="quotesingle" unicode="'" horiz-adv-x="167" 
d="M48 700h70l-6 -198h-58z" />
    <glyph glyph-name="parenleft" unicode="(" horiz-adv-x="299" 
d="M146 14q0 -88 83 -88v-69q-162 0 -162 161v584q0 161 162 161v-69q-83 0 -83 -88v-592z" />
    <glyph glyph-name="parenright" unicode=")" horiz-adv-x="299" 
d="M153 606q0 88 -83 88v69q162 0 162 -161v-584q0 -161 -162 -161v69q83 0 83 88v592z" />
    <glyph glyph-name="asterisk" unicode="*" horiz-adv-x="428" 
d="M81 640l101 -60v120h62v-121l102 61l30 -50l-104 -61l105 -60l-31 -51l-102 60v-119h-62v119l-101 -60l-31 50l104 60l-104 61z" />
    <glyph glyph-name="plus" unicode="+" horiz-adv-x="550" 
d="M40 345h199v213h72v-213h199v-67h-199v-214h-72v214h-199v67z" />
    <glyph glyph-name="comma" unicode="," horiz-adv-x="212" 
d="M49 43q0 23 16 39.5t39 16.5q25 0 42 -16.5t17 -43.5q0 -92 -77 -160l-37 36q42 32 49 73q-22 3 -35.5 19t-13.5 36z" />
    <glyph glyph-name="hyphen" unicode="-" horiz-adv-x="338" 
d="M41 338h255v-74h-255v74z" />
    <glyph glyph-name="period" unicode="." horiz-adv-x="213" 
d="M49 43q0 23 17 39.5t40 16.5t39.5 -16.5t16.5 -39.5t-16.5 -39.5t-39.5 -16.5t-40 16.5t-17 39.5z" />
    <glyph glyph-name="slash" unicode="/" horiz-adv-x="426" 
d="M328 750h73l-303 -858h-73z" />
    <glyph glyph-name="zero" unicode="0" horiz-adv-x="554" 
d="M503 350q0 -183 -50.5 -273t-175.5 -90t-175.5 90t-50.5 273t50.5 273t175.5 90t175.5 -90t50.5 -273zM133 350q0 -57 2 -94t10.5 -77t23.5 -63t42 -38t66 -15t65.5 15t41.5 38t23.5 63t10.5 77t2 94t-2 94t-10.5 77t-23.5 63t-41.5 38t-65.5 15q-32 0 -56.5 -9.5
t-40 -29.5t-25 -43t-14.5 -58.5t-6.5 -68t-1.5 -78.5z" />
    <glyph glyph-name="one" unicode="1" horiz-adv-x="311" 
d="M40 652l121 48h66v-700h-81v618l-81 -33z" />
    <glyph glyph-name="two" unicode="2" horiz-adv-x="510" 
d="M44 30q0 46 24.5 91.5t61.5 81t80 75t80 74t61.5 77t24.5 84.5q0 55 -34 89.5t-93 34.5q-103 0 -131 -108l-71 20q5 25 17.5 50.5t35.5 52.5t62.5 44t88.5 17q97 0 152.5 -55.5t55.5 -142.5q0 -58 -32.5 -113.5t-79 -98.5t-93 -82t-81 -77.5t-36.5 -71.5h332v-72h-425v30
z" />
    <glyph glyph-name="three" unicode="3" horiz-adv-x="525" 
d="M454 624l-183 -214q36 0 71 -12t66.5 -35.5t51 -64.5t19.5 -94q0 -93 -63.5 -154.5t-158.5 -61.5t-147.5 44.5t-70.5 107.5l69 25q33 -103 148 -103q60 0 100 39.5t40 100.5q0 62 -43 99.5t-121 37.5h-54v65l185 223h-301v73h392v-76z" />
    <glyph glyph-name="four" unicode="4" horiz-adv-x="560" 
d="M31 238l319 462h86v-451h92v-72h-92v-177h-80v177h-325v61zM356 249v346l-236 -346h236z" />
    <glyph glyph-name="five" unicode="5" horiz-adv-x="523" 
d="M257 62q64 0 102 44.5t38 111.5t-39.5 111.5t-107.5 44.5q-62 0 -116 -46l-68 12l15 360h357v-74h-284l-10 -216q50 34 117 34q97 0 157.5 -62t60.5 -160q0 -101 -60.5 -168t-158.5 -67q-92 0 -147 45.5t-74 107.5l70 25q31 -103 148 -103z" />
    <glyph glyph-name="six" unicode="6" horiz-adv-x="546" 
d="M308 713q85 0 158 -50l-37 -62q-51 36 -118 36q-50 0 -86.5 -23.5t-55.5 -63t-27.5 -83t-8.5 -92.5q56 79 156 79q97 0 152.5 -63t55.5 -163q0 -112 -59.5 -176.5t-161.5 -64.5q-227 0 -227 307q0 419 259 419zM279 63q62 0 99.5 42.5t37.5 120.5q0 67 -36 110.5
t-102 43.5q-98 0 -147 -97q0 -49 5.5 -84t20 -68.5t45.5 -50.5t77 -17z" />
    <glyph glyph-name="seven" unicode="7" horiz-adv-x="483" 
d="M459 700v-62l-247 -638h-86l245 626h-342v74h430z" />
    <glyph glyph-name="eight" unicode="8" horiz-adv-x="549" 
d="M274 -13q-102 0 -165.5 58t-63.5 151q0 71 37.5 115.5t81.5 62.5q-35 17 -65.5 57t-30.5 95q0 83 58.5 135t147.5 52q90 0 148.5 -52t58.5 -135q0 -55 -30.5 -95t-65.5 -57q44 -18 81.5 -62.5t37.5 -115.5q0 -93 -64 -151t-166 -58zM274 407q54 0 89.5 34t35.5 82
q0 49 -33 82t-92 33q-58 0 -91 -33t-33 -82q0 -48 35.5 -82t88.5 -34zM274 333q-63 0 -104.5 -37t-41.5 -100q0 -56 39 -95.5t107 -39.5t107 39.5t39 95.5q0 63 -41 100t-105 37z" />
    <glyph glyph-name="nine" unicode="9" horiz-adv-x="546" 
d="M238 -13q-85 0 -158 50l37 62q51 -36 118 -36q50 0 86.5 23.5t55.5 63t27.5 83t8.5 92.5q-56 -79 -156 -79q-97 0 -152.5 63t-55.5 163q0 112 59.5 176.5t161.5 64.5q227 0 227 -307q0 -419 -259 -419zM267 637q-62 0 -99.5 -42.5t-37.5 -120.5q0 -67 36 -110.5
t102 -43.5q98 0 147 97q0 49 -5.5 84t-20 68.5t-45.5 50.5t-77 17z" />
    <glyph glyph-name="colon" unicode=":" horiz-adv-x="212" 
d="M49 431q0 23 17 39.5t40 16.5t39.5 -16.5t16.5 -39.5t-16.5 -40t-39.5 -17t-40 17t-17 40zM49 43q0 23 17 39.5t40 16.5t39.5 -16.5t16.5 -39.5t-16.5 -39.5t-39.5 -16.5t-40 16.5t-17 39.5z" />
    <glyph glyph-name="semicolon" unicode=";" horiz-adv-x="212" 
d="M49 431q0 23 17 39.5t40 16.5t39.5 -16.5t16.5 -39.5t-16.5 -40t-39.5 -17t-40 17t-17 40zM49 43q0 23 16 39.5t39 16.5q25 0 42 -16.5t17 -43.5q0 -92 -77 -160l-37 36q43 33 49 73q-22 3 -35.5 19t-13.5 36z" />
    <glyph glyph-name="less" unicode="&#x3c;" horiz-adv-x="493" 
d="M43 344l406 185v-74l-323 -142l323 -145v-73l-406 185v64z" />
    <glyph glyph-name="equal" unicode="=" horiz-adv-x="550" 
d="M40 423h470v-66h-470v66zM40 258h470v-67h-470v67z" />
    <glyph glyph-name="greater" unicode="&#x3e;" horiz-adv-x="493" 
d="M450 280l-407 -185v73l324 145l-324 142v74l407 -185v-64z" />
    <glyph glyph-name="question" unicode="?" horiz-adv-x="467" 
d="M170 223q0 37 18 70t43.5 57.5l51 49t43.5 56t18 67.5q0 52 -32 84.5t-88 32.5q-84 0 -122 -84l-63 29q18 50 64.5 89t122.5 39q92 0 146.5 -52.5t54.5 -134.5q0 -45 -18.5 -83t-44.5 -64t-52.5 -49.5t-45 -51.5t-18.5 -58v-44h-78v47zM154 43q0 23 17 39.5t40 16.5
t39.5 -16.5t16.5 -39.5t-16.5 -39.5t-39.5 -16.5t-40 16.5t-17 39.5z" />
    <glyph glyph-name="at" unicode="@" horiz-adv-x="891" 
d="M249 259q0 87 54 142t134 55q48 0 80 -19t47 -39v52h67v-255q0 -73 61 -73q40 0 64.5 44.5t24.5 133.5q0 140 -90 228t-241 88q-150 0 -245 -102t-95 -250q0 -151 93.5 -249.5t240.5 -98.5q106 0 187 46l30 -49q-35 -24 -93 -41t-124 -17q-169 0 -286 116t-117 292
q0 177 116 295t294 118q91 0 166.5 -30t125.5 -81t77.5 -119t27.5 -145q0 -117 -43 -178t-118 -61q-44 0 -71.5 21t-37.5 55q-8 -14 -22.5 -29.5t-47 -31t-69.5 -15.5q-81 0 -135.5 54.5t-54.5 142.5zM321 259q0 -61 35 -98t88 -37q52 0 87.5 36t35.5 101q0 59 -34 95.5
t-90 36.5q-52 0 -87 -36.5t-35 -97.5z" />
    <glyph glyph-name="A" unicode="A" horiz-adv-x="631" 
d="M178 227l-84 -227h-82l262 700h82l262 -700h-82l-84 227h-274zM315 611l-112 -314h225z" />
    <glyph glyph-name="B" unicode="B" horiz-adv-x="544" 
d="M79 700h193q99 0 153.5 -47.5t54.5 -131.5q0 -105 -90 -154q52 -19 83 -62.5t31 -105.5q0 -92 -59.5 -145.5t-151.5 -53.5h-214v700zM281 397q52 0 84 32.5t32 85.5t-30.5 83t-85.5 30h-121v-231h121zM279 71q65 0 103 32.5t38 97.5q0 66 -38.5 97t-103.5 31h-118v-258
h119z" />
    <glyph glyph-name="C" unicode="C" horiz-adv-x="656" 
d="M620 67q-18 -16 -44 -32t-77 -32t-105 -16q-153 0 -254 103.5t-101 259.5q0 154 102 258.5t251 104.5q127 0 217 -73l-26 -72q-85 69 -189 69q-116 0 -193.5 -82.5t-77.5 -204.5q0 -124 76.5 -205.5t196.5 -81.5q109 0 199 75z" />
    <glyph glyph-name="D" unicode="D" horiz-adv-x="637" 
d="M79 700h144q178 0 276.5 -92.5t98.5 -257.5q0 -172 -98.5 -261t-276.5 -89h-144v700zM239 72q129 0 202.5 71.5t73.5 206.5q0 130 -74.5 203.5t-201.5 73.5h-79v-555h79z" />
    <glyph glyph-name="E" unicode="E" horiz-adv-x="474" 
d="M79 700h332v-74h-251v-233h219v-73h-219v-247h262v-73h-343v700z" />
    <glyph glyph-name="F" unicode="F" horiz-adv-x="467" 
d="M79 700h332v-74h-251v-240h220v-73h-220v-313h-81v700z" />
    <glyph glyph-name="G" unicode="G" horiz-adv-x="736" 
d="M393 713q159 0 258 -102l-52 -54q-83 80 -204 80q-120 0 -195.5 -82t-75.5 -206q0 -126 76 -206.5t194 -80.5q53 0 100 14.5t68.5 29t36.5 29.5v147h-156v71h234v-253q-112 -113 -286 -113q-151 0 -251.5 102t-100.5 260q0 155 100.5 259.5t253.5 104.5z" />
    <glyph glyph-name="H" unicode="H" horiz-adv-x="692" 
d="M79 700h81v-307h372v307h81v-700h-81v319h-372v-319h-81v700z" />
    <glyph glyph-name="I" unicode="I" horiz-adv-x="239" 
d="M79 700h81v-700h-81v700z" />
    <glyph glyph-name="J" unicode="J" horiz-adv-x="345" 
d="M31 76q33 -9 66 -9q88 0 88 102v531h81v-542q0 -80 -42.5 -122t-117.5 -42q-54 0 -84 10z" />
    <glyph glyph-name="K" unicode="K" horiz-adv-x="565" 
d="M79 700h81v-322l279 322h98l-294 -335l306 -365h-99l-290 352v-352h-81v700z" />
    <glyph glyph-name="L" unicode="L" horiz-adv-x="449" 
d="M79 700h81v-627h262v-73h-343v700z" />
    <glyph glyph-name="M" unicode="M" horiz-adv-x="867" 
d="M433 160l252 540h103v-700h-78v578l-237 -514h-80l-237 514v-578h-78v700h104z" />
    <glyph glyph-name="N" unicode="N" horiz-adv-x="704" 
d="M78 700h81l386 -557v557h80v-700h-80l-386 555v-555h-81v700z" />
    <glyph glyph-name="O" unicode="O" horiz-adv-x="791" 
d="M38 350q0 155 102.5 259t254.5 104t254.5 -104.5t102.5 -258.5q0 -155 -102.5 -259t-255.5 -104q-152 0 -254 103.5t-102 259.5zM122 350q0 -124 78 -205.5t195 -81.5t195 81.5t78 205.5q0 123 -78.5 205t-194.5 82t-194.5 -82t-78.5 -205z" />
    <glyph glyph-name="P" unicode="P" horiz-adv-x="508" 
d="M79 700h192q96 0 152.5 -54t56.5 -148t-58 -149.5t-151 -55.5h-111v-293h-81v700zM264 365q62 0 97.5 36t35.5 97q0 60 -35 95t-98 35h-104v-263h104z" />
    <glyph glyph-name="Q" unicode="Q" horiz-adv-x="791" 
d="M38 350q0 155 102.5 259t254.5 104t254.5 -104.5t102.5 -258.5q0 -139 -85 -238l74 -73l-53 -53l-75 73q-92 -72 -219 -72q-152 0 -254 103.5t-102 259.5zM122 350q0 -124 78 -205.5t195 -81.5q95 0 161 51l-78 75l52 54l78 -75q60 72 60 182q0 123 -78.5 205t-194.5 82
t-194.5 -82t-78.5 -205z" />
    <glyph glyph-name="R" unicode="R" horiz-adv-x="547" 
d="M79 700h178q106 0 162 -51t56 -143q0 -65 -31.5 -115.5t-90.5 -69.5l174 -321h-90l-158 304h-119v-304h-81v700zM257 375q133 0 133 130q0 123 -138 123h-92v-253h97z" />
    <glyph glyph-name="S" unicode="S" horiz-adv-x="506" 
d="M103 171q38 -109 153 -109q57 0 92 31t35 85q0 41 -24.5 71.5t-60.5 48t-79 39.5t-79 43.5t-60.5 61t-24.5 92.5q0 77 54.5 128t145.5 51q83 0 131.5 -42.5t66.5 -91.5l-68 -28q-40 88 -131 88q-56 0 -87 -30t-31 -75q0 -44 34 -75.5t82 -53.5t96.5 -47t82.5 -69t34 -106
q0 -85 -58 -140.5t-154 -55.5q-92 0 -145.5 46t-73.5 108z" />
    <glyph glyph-name="T" unicode="T" horiz-adv-x="511" 
d="M210 626h-189v74h458v-74h-188v-626h-81v626z" />
    <glyph glyph-name="U" unicode="U" horiz-adv-x="672" 
d="M336 -13q-124 0 -192.5 71.5t-68.5 192.5v449h81v-448q0 -89 46.5 -139.5t133.5 -50.5t134 51t47 140v447h80v-448q0 -120 -69 -192.5t-192 -72.5z" />
    <glyph glyph-name="V" unicode="V" horiz-adv-x="637" 
d="M275 0l-266 700h89l220 -604l221 604h89l-266 -700h-87z" />
    <glyph glyph-name="W" unicode="W" horiz-adv-x="943" 
d="M471 581l-170 -581h-90l-200 700h87l161 -597l172 597h80l172 -597l162 597h86l-199 -700h-91z" />
    <glyph glyph-name="X" unicode="X" horiz-adv-x="603" 
d="M251 362l-221 338h97l174 -276l175 276h95l-221 -338l239 -362h-92l-198 301l-195 -301h-91z" />
    <glyph glyph-name="Y" unicode="Y" horiz-adv-x="532" 
d="M226 328l-217 372h93l164 -295l167 295h90l-217 -372v-328h-80v328z" />
    <glyph glyph-name="Z" unicode="Z" horiz-adv-x="594" 
d="M35 59l412 568h-399v73h504v-60l-413 -567h415v-73h-519v59z" />
    <glyph glyph-name="bracketleft" unicode="[" horiz-adv-x="299" 
d="M67 763h162v-69h-83v-768h83v-69h-162v906z" />
    <glyph glyph-name="backslash" unicode="\" horiz-adv-x="426" 
d="M401 -108h-73l-303 858h73z" />
    <glyph glyph-name="bracketright" unicode="]" horiz-adv-x="305" 
d="M232 -143h-162v69h83v768h-83v69h162v-906z" />
    <glyph glyph-name="asciicircum" unicode="^" horiz-adv-x="523" 
d="M227 700h68l183 -382h-79l-138 302l-138 -302h-78z" />
    <glyph glyph-name="underscore" unicode="_" horiz-adv-x="606" 
d="M573 -29v-66h-540v66h540z" />
    <glyph glyph-name="grave" unicode="`" horiz-adv-x="489" 
d="M324 583h-70l-88 142h86z" />
    <glyph glyph-name="a" unicode="a" horiz-adv-x="510" 
d="M34 160q0 74 56 122.5t144 48.5q46 0 82.5 -14t54.5 -33v64q0 54 -34 84.5t-92 30.5q-77 0 -153 -45l-32 58q91 57 192 57q102 0 150 -51t48 -139v-343h-68l-9 44q-50 -57 -141 -57q-86 0 -142 48.5t-56 124.5zM114 161q0 -46 36 -77t95 -31q57 0 93 30.5t36 77.5
q0 49 -35.5 78t-94.5 29q-58 0 -94 -30.5t-36 -76.5z" />
    <glyph glyph-name="b" unicode="b" horiz-adv-x="612" 
d="M68 723h79v-287q19 33 66 65t118 32q110 0 179 -77t69 -197q0 -119 -71.5 -195.5t-182.5 -76.5q-116 0 -181 95v-82h-76v723zM144 258q0 -84 48.5 -142t127.5 -58q76 0 127 55.5t51 144.5t-49.5 146t-126.5 57q-76 0 -127 -54.5t-51 -148.5z" />
    <glyph glyph-name="c" unicode="c" horiz-adv-x="512" 
d="M455 394q-63 66 -154 66q-81 0 -133.5 -57.5t-52.5 -142.5q0 -84 54 -142.5t134 -58.5q86 0 155 69l24 -67q-14 -15 -34.5 -29.5t-62 -29.5t-85.5 -15q-115 0 -191 78.5t-76 194.5t76.5 194.5t189.5 78.5q109 0 183 -71z" />
    <glyph glyph-name="d" unicode="d" horiz-adv-x="612" 
d="M544 0h-77v82q-65 -95 -180 -95q-112 0 -183 76.5t-71 195.5q0 121 69 197.5t179 76.5q71 0 118 -32.5t65 -64.5v287h80v-723zM467 258q0 94 -50.5 148.5t-126.5 54.5q-77 0 -126.5 -57t-49.5 -146t50.5 -144.5t126.5 -55.5q80 0 128 58t48 142z" />
    <glyph glyph-name="e" unicode="e" horiz-adv-x="565" 
d="M34 258q0 122 73 198.5t179 76.5q113 0 180 -73.5t67 -192.5q0 -14 -1 -24h-417q1 -86 53 -136t134 -50q104 0 162 81l52 -38q-27 -45 -81 -79t-134 -34q-118 0 -192.5 75.5t-74.5 195.5zM452 302q-4 78 -51 120.5t-115 42.5q-65 0 -114 -45.5t-53 -117.5h333z" />
    <glyph glyph-name="f" unicode="f" horiz-adv-x="294" 
d="M84 453h-58v67h58v27q0 91 46 132t117 41l33 -2v-69q-13 2 -25 2q-91 0 -91 -104v-27h111v-67h-111v-453h-80v453z" />
    <glyph glyph-name="g" unicode="g" horiz-adv-x="607" 
d="M124 -78q72 -43 157 -43q81 0 132 37.5t51 119.5v46q-7 -11 -18 -23.5t-33 -30.5t-55.5 -29.5t-73.5 -11.5q-111 0 -181 76t-70 196t70 197t180 77q70 0 117 -32t67 -65v84h76v-448q0 -264 -261 -264q-102 0 -186 52zM467 259q0 92 -51 147t-127 55t-126 -56.5
t-50 -145.5t51 -144.5t127 -55.5q79 0 127.5 57t48.5 143z" />
    <glyph glyph-name="h" unicode="h" horiz-adv-x="548" 
d="M301 533q88 0 136 -58t48 -150v-325h-79v328q0 61 -34.5 97t-88.5 36q-60 0 -98 -40.5t-38 -104.5v-316h-79v723h79v-278q20 37 61.5 62.5t92.5 25.5z" />
    <glyph glyph-name="i" unicode="i" 
d="M53 654q0 22 15.5 38t38.5 16t39 -15.5t16 -38.5t-16 -39t-39 -16t-38.5 16t-15.5 39zM68 520h79v-520h-79v520z" />
    <glyph glyph-name="j" unicode="j" 
d="M53 654q0 22 15.5 38t38.5 16t39 -15.5t16 -38.5t-16 -39t-39 -16t-38.5 16t-15.5 39zM68 520h79v-537q0 -174 -162 -174l-27 2v68q13 -1 22 -1q88 0 88 107v535z" />
    <glyph glyph-name="k" unicode="k" horiz-adv-x="478" 
d="M68 723h79v-426l212 223h100l-224 -233l237 -287h-102l-223 277v-277h-79v723z" />
    <glyph glyph-name="l" unicode="l" 
d="M68 723h79v-723h-79v723z" />
    <glyph glyph-name="m" unicode="m" horiz-adv-x="859" 
d="M795 0h-79v313q0 148 -117 148q-57 0 -92.5 -39t-35.5 -110v-312h-79v328q0 62 -32 97.5t-87 35.5q-53 0 -89.5 -40.5t-36.5 -105.5v-315h-79v520h78v-75q16 36 56 62t91 26q57 0 97.5 -25.5t59.5 -69.5q48 95 167 95q85 0 131.5 -54t46.5 -142v-337z" />
    <glyph glyph-name="n" unicode="n" horiz-adv-x="548" 
d="M301 533q88 0 135.5 -58t47.5 -150v-325h-79v328q0 61 -34.5 97t-88.5 36q-60 0 -97.5 -40.5t-37.5 -104.5v-316h-79v520h78v-75q20 37 61.5 62.5t93.5 25.5z" />
    <glyph glyph-name="o" unicode="o" horiz-adv-x="609" 
d="M33 260q0 118 77.5 195.5t194.5 77.5t194 -78t77 -195t-77.5 -195t-194.5 -78t-194 77.5t-77 195.5zM114 260q0 -88 53.5 -144.5t136.5 -56.5q84 0 138 57t54 144t-54 144t-138 57q-83 0 -136.5 -57.5t-53.5 -143.5z" />
    <glyph glyph-name="p" unicode="p" horiz-adv-x="613" 
d="M68 520h76v-82q65 95 181 95q111 0 182.5 -76.5t71.5 -195.5q0 -121 -69 -197.5t-179 -76.5q-71 0 -118 32t-66 65v-271h-79v707zM144 261q0 -93 51 -147.5t127 -54.5q77 0 126.5 56.5t49.5 145.5q0 90 -50.5 145t-127.5 55q-79 0 -127.5 -58t-48.5 -142z" />
    <glyph glyph-name="q" unicode="q" horiz-adv-x="613" 
d="M544 -187h-79v271q-18 -32 -65 -64.5t-118 -32.5q-111 0 -179.5 76.5t-68.5 197.5q0 119 71 195.5t183 76.5q115 0 180 -95v82h76v-707zM468 261q0 84 -48 142t-128 58q-77 0 -127.5 -55t-50.5 -145q0 -89 50 -145.5t126 -56.5t127 54.5t51 147.5z" />
    <glyph glyph-name="r" unicode="r" horiz-adv-x="321" 
d="M301 454q-154 0 -154 -205v-249h-79v520h78v-87q14 42 56.5 71t98.5 29v-79z" />
    <glyph glyph-name="s" unicode="s" horiz-adv-x="417" 
d="M84 134q43 -80 130 -80q41 0 68.5 22.5t27.5 60.5q0 33 -27 55t-65 36.5t-76.5 31.5t-65.5 50t-27 82q0 64 47.5 102.5t119.5 38.5q65 0 106.5 -31.5t54.5 -68.5l-58 -33q-33 67 -108 67q-37 0 -61.5 -19.5t-24.5 -52.5q0 -32 27 -53.5t65.5 -35.5t77 -30.5t65.5 -50.5
t27 -84q0 -68 -50 -111t-127 -43q-129 0 -181 111z" />
    <glyph glyph-name="t" unicode="t" horiz-adv-x="295" 
d="M74 629h79v-109h114v-67h-114v-268q0 -70 21.5 -95t74.5 -25l22 1v-70q-21 -3 -48 -3q-149 0 -149 185v275h-61v67h61v109z" />
    <glyph glyph-name="u" unicode="u" horiz-adv-x="543" 
d="M247 -13q-88 0 -136 58t-48 150v325h79v-328q0 -61 34.5 -97t88.5 -36q60 0 97.5 40.5t37.5 104.5v316h80v-520h-79v75q-19 -37 -61 -62.5t-93 -25.5z" />
    <glyph glyph-name="v" unicode="v" horiz-adv-x="501" 
d="M207 0l-201 520h85l160 -431l159 431h84l-200 -520h-87z" />
    <glyph glyph-name="w" unicode="w" horiz-adv-x="816" 
d="M408 413l-139 -413h-87l-175 520h86l136 -428q1 3 140 428h78l139 -428l137 428h86l-176 -520h-87z" />
    <glyph glyph-name="x" unicode="x" horiz-adv-x="504" 
d="M252 210l-151 -210h-90l194 269l-180 251h93l134 -195l134 195h93l-180 -251l194 -269h-91z" />
    <glyph glyph-name="y" unicode="y" horiz-adv-x="508" 
d="M143 -179l75 184l-212 515h86l165 -418l160 418h84l-279 -699h-79z" />
    <glyph glyph-name="z" unicode="z" horiz-adv-x="462" 
d="M32 56l298 396h-289v68h382v-57l-297 -396h302v-67h-396v56z" />
    <glyph glyph-name="braceleft" unicode="{" horiz-adv-x="341" 
d="M109 161q0 113 -73 113v72q37 0 55 26.5t18 86.5v143q0 161 162 161v-69q-83 0 -83 -88v-165q0 -43 -14 -74t-27.5 -42t-25.5 -15q12 -4 25.5 -15t27.5 -42t14 -74v-165q0 -88 83 -88v-69q-162 0 -162 161v143z" />
    <glyph glyph-name="bar" unicode="|" horiz-adv-x="252" 
d="M88 783h76v-989h-76v989z" />
    <glyph glyph-name="braceright" unicode="}" horiz-adv-x="341" 
d="M232 18q0 -161 -162 -161v69q83 0 83 88v165q0 43 14 74t27.5 42t25.5 15q-12 4 -25.5 15t-27.5 42t-14 74v165q0 88 -83 88v69q162 0 162 -161v-143q0 -60 18 -86.5t55 -26.5v-72q-73 0 -73 -113v-143z" />
    <glyph glyph-name="asciitilde" unicode="~" horiz-adv-x="536" 
d="M362 306q30 0 46 20t17 49h66q0 -58 -33.5 -99t-92.5 -41q-40 0 -98 34.5t-93 34.5q-31 0 -46.5 -19.5t-17.5 -49.5h-65q0 61 34 100.5t93 39.5q42 0 104 -34.5t86 -34.5z" />
    <glyph glyph-name="exclamdown" unicode="&#xa1;" horiz-adv-x="258" 
d="M186 504q0 -23 -17 -39.5t-40 -16.5t-39.5 16.5t-16.5 39.5t16.5 39.5t39.5 16.5t40 -16.5t17 -39.5zM171 -153h-83l7 524h69z" />
    <glyph glyph-name="cent" unicode="&#xa2;" horiz-adv-x="518" 
d="M272 66q-105 10 -171.5 86t-66.5 185q0 108 67.5 185t170.5 87v91h62v-92q51 -5 89.5 -26.5t58.5 -42.5l-26 -68q-64 67 -154 67q-81 0 -133.5 -57.5t-52.5 -142.5t54 -143.5t134 -58.5q88 0 154 69l25 -67q-58 -62 -149 -72v-66h-62v66z" />
    <glyph glyph-name="sterling" unicode="&#xa3;" horiz-adv-x="555" 
d="M48 382h58v129q0 90 54.5 146t147.5 56q77 0 124 -40t61 -88l-65 -29q-12 32 -42 56.5t-77 24.5q-60 0 -91 -34.5t-31 -95.5v-125h168v-67h-168v-243h321v-72h-469v72h67v243h-58v67z" />
    <glyph glyph-name="yen" unicode="&#xa5;" horiz-adv-x="550" 
d="M76 387h125l-183 313h93l164 -295l167 295h90l-183 -313h125v-60h-159v-90h159v-59h-159v-178h-80v178h-159v59h159v90h-159v60z" />
    <glyph glyph-name="section" unicode="&#xa7;" horiz-adv-x="477" 
d="M441 231q0 -48 -25.5 -84.5t-65.5 -52.5q74 -58 74 -141q0 -74 -51.5 -120t-137.5 -46q-82 0 -129 38.5t-64 86.5l65 27q36 -79 128 -79q52 0 80 25t28 69q0 63 -83 112l-141 86q-84 49 -84 137q0 47 25.5 83.5t65.5 52.5q-74 58 -74 141q0 74 51.5 120.5t137.5 46.5
q82 0 129 -39t64 -87l-65 -27q-36 80 -128 80q-52 0 -80 -25.5t-28 -69.5q0 -63 83 -112l111 -65q114 -69 114 -157zM366 229q0 55 -75 98l-94 52q-37 -1 -62 -27t-25 -62q0 -52 45 -78l124 -72q37 1 62 27t25 62z" />
    <glyph glyph-name="dieresis" unicode="&#xa8;" horiz-adv-x="489" 
d="M112 653q0 20 14.5 35t35.5 15t35.5 -14.5t14.5 -35.5t-14 -35.5t-36 -14.5q-21 0 -35.5 14.5t-14.5 35.5zM276 653q0 21 14.5 35.5t35.5 14.5t35.5 -15t14.5 -35q0 -21 -14.5 -35.5t-35.5 -14.5q-22 0 -36 14.5t-14 35.5z" />
    <glyph glyph-name="copyright" unicode="&#xa9;" horiz-adv-x="804" 
d="M43 348q0 153 102 259t254 106q156 0 258.5 -105.5t102.5 -259.5t-101.5 -258t-257.5 -104q-155 0 -256.5 104t-101.5 258zM107 348q0 -131 82.5 -218t211.5 -87q130 0 212.5 87t82.5 219q0 131 -83 218.5t-214 87.5q-127 0 -209.5 -87.5t-82.5 -219.5zM220 347
q0 83 50.5 138.5t134.5 55.5q94 0 149 -72l-44 -41q-42 51 -105 51q-56 0 -86.5 -36.5t-30.5 -94.5t30.5 -94.5t86.5 -36.5q63 0 105 51l44 -40q-54 -73 -149 -73q-84 0 -134.5 54.5t-50.5 137.5z" />
    <glyph glyph-name="ordfeminine" unicode="&#xaa;" horiz-adv-x="408" 
d="M44 432q0 57 42.5 93.5t109.5 36.5q62 0 100 -32v41q0 40 -25 62t-67 22q-54 0 -116 -34l-26 48q70 44 148 44q77 0 113 -39t36 -107v-258h-54l-7 30q-37 -39 -104 -39q-66 0 -108 37t-42 95zM107 433q0 -34 27 -56.5t70 -22.5q42 0 68.5 22t26.5 57q0 34 -26.5 55.5
t-68.5 21.5q-43 0 -70 -22t-27 -55z" />
    <glyph glyph-name="guillemotleft" unicode="&#xab;" horiz-adv-x="428" 
d="M34 292l124 184h77l-124 -184l124 -183h-77zM317 476h77l-125 -184l125 -183h-77l-125 183z" />
    <glyph glyph-name="registered" unicode="&#xae;" horiz-adv-x="452" 
d="M19 538q0 87 56.5 145.5t147.5 58.5q94 0 151 -58t57 -145q0 -86 -56.5 -145t-149.5 -59q-92 0 -149 58t-57 145zM65 538q0 -70 43.5 -115.5t116.5 -45.5q74 0 117 45t43 117t-43.5 116t-118.5 44q-72 0 -115 -45t-43 -116zM203 512v-82h-47v216h75q35 0 54.5 -17.5
t19.5 -48.5q0 -42 -33 -57l41 -93h-49l-33 82h-28zM203 605v-52h28q25 0 25 26t-25 26h-28z" />
    <glyph glyph-name="macron" unicode="&#xaf;" horiz-adv-x="451" 
d="M104 692h242v-63h-242v63z" />
    <glyph glyph-name="degree" unicode="&#xb0;" horiz-adv-x="356" 
d="M31 568q0 60 41.5 102.5t104.5 42.5q64 0 105.5 -42t41.5 -102q0 -62 -41 -103.5t-106 -41.5t-105.5 41.5t-40.5 102.5zM94 568q0 -37 22.5 -61t60.5 -24t60.5 24.5t22.5 61.5t-22.5 61t-60.5 24q-37 0 -60 -24.5t-23 -61.5z" />
    <glyph glyph-name="uni00B2" unicode="&#xb2;" horiz-adv-x="342" 
d="M47 344q0 33 19 63t46 52t54 42.5t46 43t19 44.5q0 26 -17.5 43t-46.5 17q-47 0 -69 -52l-52 21q13 37 43 63.5t80 26.5q58 0 92.5 -33t34.5 -85q0 -30 -17.5 -57t-43 -47.5t-51.5 -39t-44.5 -41t-20.5 -45.5h183v-56h-255v40z" />
    <glyph glyph-name="uni00B3" unicode="&#xb3;" horiz-adv-x="341" 
d="M292 652l-104 -113q49 -1 83 -33t34 -85q0 -58 -38.5 -91.5t-96.5 -33.5q-95 0 -131 90l51 22q24 -54 79 -54q31 0 50.5 17.5t19.5 50.5q0 70 -82 70h-37v49l94 102h-157v57h235v-48z" />
    <glyph glyph-name="acute" unicode="&#xb4;" horiz-adv-x="489" 
d="M236 725h87l-89 -142h-69z" />
    <glyph glyph-name="paragraph" unicode="&#xb6;" horiz-adv-x="505" 
d="M230 329q-79 1 -133.5 55t-54.5 131t54 131t131 54h71v-745h-68v374zM363 700h69v-745h-69v745z" />
    <glyph glyph-name="periodcentered" unicode="&#xb7;" horiz-adv-x="226" 
d="M56 314q0 23 16.5 39.5t39.5 16.5t40 -16.5t17 -39.5t-17 -40t-40 -17t-39.5 17t-16.5 40z" />
    <glyph glyph-name="cedilla" unicode="&#xb8;" horiz-adv-x="451" 
d="M229 10l-8 -57q37 -4 58.5 -27t21.5 -58q0 -47 -32 -70t-81 -23q-27 0 -42 5l9 51q16 -3 30 -3q56 0 56 41t-57 41l-19 -2l14 102h50z" />
    <glyph glyph-name="uni00B9" unicode="&#xb9;" horiz-adv-x="254" 
d="M46 670l79 30h52v-396h-64v332l-50 -20z" />
    <glyph glyph-name="ordmasculine" unicode="&#xba;" horiz-adv-x="468" 
d="M27 505q0 90 59 149t148 59q88 0 146 -59t58 -148q0 -88 -58.5 -147t-146.5 -59q-89 0 -147.5 58t-58.5 147zM92 505q0 -64 39.5 -106t101.5 -42q61 0 100.5 42.5t39.5 106.5t-39.5 106t-100.5 42q-62 0 -101.5 -42.5t-39.5 -106.5z" />
    <glyph glyph-name="guillemotright" unicode="&#xbb;" horiz-adv-x="428" 
d="M236 292l-125 -183h-77l125 183l-125 184h77zM270 109h-77l124 183l-124 184h77l124 -184z" />
    <glyph glyph-name="onequarter" unicode="&#xbc;" horiz-adv-x="789" 
d="M553 741h73l-389 -782h-73zM206 304h-65v332l-49 -20l-17 54l78 30h53v-396zM703 136h51v-57h-51v-79h-64v79h-190v49l189 268h65v-260zM639 136v178l-123 -178h123z" />
    <glyph glyph-name="onehalf" unicode="&#xbd;" horiz-adv-x="799" 
d="M144 -41l390 782h73l-390 -782h-73zM75 670l78 30h53v-396h-65v332l-49 -20zM488 40q0 40 29 77t63 60t63 52t29 56q0 26 -17.5 43t-46.5 17q-47 0 -69 -52l-52 21q13 37 43 63.5t80 26.5q58 0 92.5 -33t34.5 -85q0 -30 -17.5 -57t-43 -47.5t-51.5 -39t-44.5 -41
t-20.5 -45.5h183v-56h-255v40z" />
    <glyph glyph-name="threequarters" unicode="&#xbe;" horiz-adv-x="844" 
d="M609 741h73l-390 -782h-73zM320 421q0 -58 -38.5 -91.5t-96.5 -33.5q-95 0 -131 90l51 22q24 -54 79 -54q31 0 50.5 17.5t19.5 50.5q0 70 -82 70h-37v49l94 102h-157v57h235v-48l-104 -113q49 -1 83 -33t34 -85zM742 136h51v-57h-51v-79h-64v79h-190v49l189 268h65v-260z
M678 136v178l-123 -178h123z" />
    <glyph glyph-name="questiondown" unicode="&#xbf;" horiz-adv-x="467" 
d="M312 503q0 -23 -16.5 -39.5t-39.5 -16.5t-39.5 16.5t-16.5 39.5t16.5 40t39.5 17t39.5 -17t16.5 -40zM296 323q0 -37 -18 -70t-43.5 -57.5l-51 -49t-43.5 -56t-18 -67.5q0 -52 32 -84.5t88 -32.5q85 0 123 84l62 -29q-18 -50 -64 -88.5t-123 -38.5q-92 0 -146.5 52
t-54.5 134q0 45 18.5 83t44.5 64t52.5 49.5t45 51.5t18.5 58v44h78v-47z" />
    <glyph glyph-name="Agrave" unicode="&#xc0;" horiz-adv-x="631" 
d="M350 744h-70l-88 142h86zM178 227l-84 -227h-82l262 700h82l262 -700h-82l-84 227h-274zM315 611l-112 -314h225z" />
    <glyph glyph-name="Aacute" unicode="&#xc1;" horiz-adv-x="631" 
d="M347 886h87l-89 -142h-69zM178 227l-84 -227h-82l262 700h82l262 -700h-82l-84 227h-274zM315 611l-112 -314h225z" />
    <glyph glyph-name="Acircumflex" unicode="&#xc2;" horiz-adv-x="631" 
d="M315 831l-61 -82h-75l94 130h84l94 -130h-74zM178 227l-84 -227h-82l262 700h82l262 -700h-82l-84 227h-274zM315 611l-112 -314h225z" />
    <glyph glyph-name="Atilde" unicode="&#xc3;" horiz-adv-x="631" 
d="M380 758q-28 0 -68 22.5t-58 22.5q-17 0 -27 -12t-11 -32h-57q0 48 26 76.5t68 28.5q27 0 68 -22t57 -22q17 0 27 12t11 32h56q0 -48 -25.5 -77t-66.5 -29zM178 227l-84 -227h-82l262 700h82l262 -700h-82l-84 227h-274zM315 611l-112 -314h225z" />
    <glyph glyph-name="Adieresis" unicode="&#xc4;" horiz-adv-x="631" 
d="M185 812q0 20 14.5 35t35.5 15t35.5 -14.5t14.5 -35.5t-14 -35.5t-36 -14.5q-21 0 -35.5 14.5t-14.5 35.5zM349 812q0 21 14.5 35.5t35.5 14.5t35.5 -15t14.5 -35q0 -21 -14.5 -35.5t-35.5 -14.5q-22 0 -36 14.5t-14 35.5zM178 227l-84 -227h-82l262 700h82l262 -700h-82
l-84 227h-274zM315 611l-112 -314h225z" />
    <glyph glyph-name="Aring" unicode="&#xc5;" horiz-adv-x="631" 
d="M225 827q0 38 25.5 62.5t63.5 24.5q40 0 65.5 -24t25.5 -62t-25.5 -63t-64.5 -25t-64.5 24.5t-25.5 62.5zM274 827q0 -19 11 -30.5t30 -11.5t30 11.5t11 31.5q0 18 -11 29.5t-31 11.5q-18 0 -29 -11.5t-11 -30.5zM178 227l-84 -227h-82l262 700h82l262 -700h-82l-84 227
h-274zM315 611l-112 -314h225z" />
    <glyph glyph-name="AE" unicode="&#xc6;" horiz-adv-x="811" 
d="M365 700h383v-74h-251v-233h219v-73h-219v-247h261v-73h-342v227h-209l-111 -227h-88zM241 297h175v329h-15z" />
    <glyph glyph-name="Ccedilla" unicode="&#xc7;" horiz-adv-x="656" 
d="M620 67q-18 -16 -44 -32t-77 -32t-105 -16l-16 1l-4 -35q37 -4 58.5 -27t21.5 -58q0 -47 -32 -70t-81 -23q-27 0 -42 5l9 51q16 -3 30 -3q56 0 56 41t-57 41l-19 -2l11 85q-129 21 -209.5 120t-80.5 237q0 154 102 258.5t251 104.5q127 0 217 -73l-26 -72q-85 69 -189 69
q-116 0 -193.5 -82.5t-77.5 -204.5q0 -124 76.5 -205.5t196.5 -81.5q109 0 199 75z" />
    <glyph glyph-name="Egrave" unicode="&#xc8;" horiz-adv-x="474" 
d="M303 744h-70l-88 142h86zM79 700h332v-74h-251v-233h219v-73h-219v-247h262v-73h-343v700z" />
    <glyph glyph-name="Eacute" unicode="&#xc9;" horiz-adv-x="474" 
d="M275 886h87l-89 -142h-69zM79 700h332v-74h-251v-233h219v-73h-219v-247h262v-73h-343v700z" />
    <glyph glyph-name="Ecircumflex" unicode="&#xca;" horiz-adv-x="474" 
d="M251 831l-61 -82h-75l94 130h84l94 -130h-74zM79 700h332v-74h-251v-233h219v-73h-219v-247h262v-73h-343v700z" />
    <glyph glyph-name="Edieresis" unicode="&#xcb;" horiz-adv-x="474" 
d="M125 812q0 20 14.5 35t35.5 15t35.5 -14.5t14.5 -35.5t-14 -35.5t-36 -14.5q-21 0 -35.5 14.5t-14.5 35.5zM289 812q0 21 14.5 35.5t35.5 14.5t35.5 -15t14.5 -35q0 -21 -14.5 -35.5t-35.5 -14.5q-22 0 -36 14.5t-14 35.5zM79 700h332v-74h-251v-233h219v-73h-219v-247
h262v-73h-343v700z" />
    <glyph glyph-name="Igrave" unicode="&#xcc;" horiz-adv-x="239" 
d="M164 744h-70l-88 142h86zM79 700h81v-700h-81v700z" />
    <glyph glyph-name="Iacute" unicode="&#xcd;" horiz-adv-x="239" 
d="M147 886h87l-89 -142h-69zM79 700h81v-700h-81v700z" />
    <glyph glyph-name="Icircumflex" unicode="&#xce;" horiz-adv-x="239" 
d="M123 831l-61 -82h-75l94 130h84l94 -130h-74zM79 700h81v-700h-81v700z" />
    <glyph glyph-name="Idieresis" unicode="&#xcf;" horiz-adv-x="239" 
d="M-8 812q0 20 14.5 35t35.5 15t35.5 -14.5t14.5 -35.5t-14 -35.5t-36 -14.5q-21 0 -35.5 14.5t-14.5 35.5zM156 812q0 21 14.5 35.5t35.5 14.5t35.5 -15t14.5 -35q0 -21 -14.5 -35.5t-35.5 -14.5q-22 0 -36 14.5t-14 35.5zM79 700h81v-700h-81v700z" />
    <glyph glyph-name="Eth" unicode="&#xd0;" horiz-adv-x="640" 
d="M24 390h58v310h145q178 0 276.5 -92.5t98.5 -257.5q0 -171 -98.5 -260.5t-276.5 -89.5h-145v318h-58v72zM243 72q128 0 201.5 71.5t73.5 206.5q0 130 -74 203.5t-201 73.5h-80v-237h145v-72h-145v-246h80z" />
    <glyph glyph-name="Ntilde" unicode="&#xd1;" horiz-adv-x="704" 
d="M419 758q-28 0 -68 22.5t-58 22.5q-17 0 -27 -12t-11 -32h-57q0 48 26 76.5t68 28.5q27 0 68 -22t57 -22q17 0 27 12t11 32h56q0 -48 -25.5 -77t-66.5 -29zM78 700h81l386 -557v557h80v-700h-80l-386 555v-555h-81v700z" />
    <glyph glyph-name="Ograve" unicode="&#xd2;" horiz-adv-x="791" 
d="M436 744h-70l-88 142h86zM38 350q0 155 102.5 259t254.5 104t254.5 -104.5t102.5 -258.5q0 -155 -102.5 -259t-255.5 -104q-152 0 -254 103.5t-102 259.5zM122 350q0 -124 78 -205.5t195 -81.5t195 81.5t78 205.5q0 123 -78.5 205t-194.5 82t-194.5 -82t-78.5 -205z" />
    <glyph glyph-name="Oacute" unicode="&#xd3;" horiz-adv-x="791" 
d="M416 886h87l-89 -142h-69zM38 350q0 155 102.5 259t254.5 104t254.5 -104.5t102.5 -258.5q0 -155 -102.5 -259t-255.5 -104q-152 0 -254 103.5t-102 259.5zM122 350q0 -124 78 -205.5t195 -81.5t195 81.5t78 205.5q0 123 -78.5 205t-194.5 82t-194.5 -82t-78.5 -205z" />
    <glyph glyph-name="Ocircumflex" unicode="&#xd4;" horiz-adv-x="791" 
d="M394 831l-61 -82h-75l94 130h84l94 -130h-74zM38 350q0 155 102.5 259t254.5 104t254.5 -104.5t102.5 -258.5q0 -155 -102.5 -259t-255.5 -104q-152 0 -254 103.5t-102 259.5zM122 350q0 -124 78 -205.5t195 -81.5t195 81.5t78 205.5q0 123 -78.5 205t-194.5 82
t-194.5 -82t-78.5 -205z" />
    <glyph glyph-name="Otilde" unicode="&#xd5;" horiz-adv-x="791" 
d="M462 758q-28 0 -68 22.5t-58 22.5q-17 0 -27 -12t-11 -32h-57q0 48 26 76.5t68 28.5q27 0 68 -22t57 -22q17 0 27 12t11 32h56q0 -48 -25.5 -77t-66.5 -29zM38 350q0 155 102.5 259t254.5 104t254.5 -104.5t102.5 -258.5q0 -155 -102.5 -259t-255.5 -104
q-152 0 -254 103.5t-102 259.5zM122 350q0 -124 78 -205.5t195 -81.5t195 81.5t78 205.5q0 123 -78.5 205t-194.5 82t-194.5 -82t-78.5 -205z" />
    <glyph glyph-name="Odieresis" unicode="&#xd6;" horiz-adv-x="791" 
d="M265 812q0 20 14.5 35t35.5 15t35.5 -14.5t14.5 -35.5t-14 -35.5t-36 -14.5q-21 0 -35.5 14.5t-14.5 35.5zM429 812q0 21 14.5 35.5t35.5 14.5t35.5 -15t14.5 -35q0 -21 -14.5 -35.5t-35.5 -14.5q-22 0 -36 14.5t-14 35.5zM38 350q0 155 102.5 259t254.5 104
t254.5 -104.5t102.5 -258.5q0 -155 -102.5 -259t-255.5 -104q-152 0 -254 103.5t-102 259.5zM122 350q0 -124 78 -205.5t195 -81.5t195 81.5t78 205.5q0 123 -78.5 205t-194.5 82t-194.5 -82t-78.5 -205z" />
    <glyph glyph-name="multiply" unicode="&#xd7;" horiz-adv-x="531" 
d="M218 308l-171 185l47 48l171 -184l171 184l46 -47l-172 -185l173 -186l-47 -47l-172 185l-170 -184l-47 47z" />
    <glyph glyph-name="Oslash" unicode="&#xd8;" horiz-adv-x="791" 
d="M39 350q0 155 102.5 259t254.5 104q109 0 197 -59l52 65l50 -40l-51 -65q109 -104 109 -264q0 -155 -102.5 -259t-255.5 -104q-111 0 -199 58l-51 -65l-50 40l51 65q-107 104 -107 265zM123 350q0 -120 75 -200l346 442q-66 45 -148 45q-117 0 -195 -82t-78 -205z
M669 350q0 118 -76 200l-348 -443q65 -44 151 -44q116 0 194.5 81.5t78.5 205.5z" />
    <glyph glyph-name="Ugrave" unicode="&#xd9;" horiz-adv-x="672" 
d="M387 744h-70l-88 142h86zM336 -13q-124 0 -192.5 71.5t-68.5 192.5v449h81v-448q0 -89 46.5 -139.5t133.5 -50.5t134 51t47 140v447h80v-448q0 -120 -69 -192.5t-192 -72.5z" />
    <glyph glyph-name="Uacute" unicode="&#xda;" horiz-adv-x="672" 
d="M360 886h87l-89 -142h-69zM336 -13q-124 0 -192.5 71.5t-68.5 192.5v449h81v-448q0 -89 46.5 -139.5t133.5 -50.5t134 51t47 140v447h80v-448q0 -120 -69 -192.5t-192 -72.5z" />
    <glyph glyph-name="Ucircumflex" unicode="&#xdb;" horiz-adv-x="672" 
d="M336 831l-61 -82h-75l94 130h84l94 -130h-74zM336 -13q-124 0 -192.5 71.5t-68.5 192.5v449h81v-448q0 -89 46.5 -139.5t133.5 -50.5t134 51t47 140v447h80v-448q0 -120 -69 -192.5t-192 -72.5z" />
    <glyph glyph-name="Udieresis" unicode="&#xdc;" horiz-adv-x="672" 
d="M206 812q0 20 14.5 35t35.5 15t35.5 -14.5t14.5 -35.5t-14 -35.5t-36 -14.5q-21 0 -35.5 14.5t-14.5 35.5zM370 812q0 21 14.5 35.5t35.5 14.5t35.5 -15t14.5 -35q0 -21 -14.5 -35.5t-35.5 -14.5q-22 0 -36 14.5t-14 35.5zM336 -13q-124 0 -192.5 71.5t-68.5 192.5v449
h81v-448q0 -89 46.5 -139.5t133.5 -50.5t134 51t47 140v447h80v-448q0 -120 -69 -192.5t-192 -72.5z" />
    <glyph glyph-name="Yacute" unicode="&#xdd;" horiz-adv-x="532" 
d="M295 886h87l-89 -142h-69zM226 328l-217 372h93l164 -295l167 295h90l-217 -372v-328h-80v328z" />
    <glyph glyph-name="Thorn" unicode="&#xde;" horiz-adv-x="513" 
d="M79 700h81v-137h115q96 0 152.5 -53.5t56.5 -147.5t-58 -149.5t-151 -55.5h-115v-157h-81v700zM268 228q62 0 97.5 36t35.5 97t-35 95.5t-98 34.5h-108v-263h108z" />
    <glyph glyph-name="germandbls" unicode="&#xdf;" horiz-adv-x="538" 
d="M252 649q-106 0 -106 -116v-533h-80v547q0 88 50 130.5t136 42.5q81 0 130 -43t49 -104q0 -94 -79 -130q68 -20 112 -74t44 -131q0 -118 -75 -178t-196 -60v70q75 0 132.5 40.5t57.5 126.5q0 78 -56.5 121t-133.5 43v69q45 0 79.5 23.5t34.5 68.5q0 40 -27 63.5t-72 23.5
z" />
    <glyph glyph-name="agrave" unicode="&#xe0;" horiz-adv-x="510" 
d="M304 583h-70l-88 142h86zM34 160q0 74 56 122.5t144 48.5q46 0 82.5 -14t54.5 -33v64q0 54 -34 84.5t-92 30.5q-77 0 -153 -45l-32 58q91 57 192 57q102 0 150 -51t48 -139v-343h-68l-9 44q-50 -57 -141 -57q-86 0 -142 48.5t-56 124.5zM114 161q0 -46 36 -77t95 -31
q57 0 93 30.5t36 77.5q0 49 -35.5 78t-94.5 29q-58 0 -94 -30.5t-36 -76.5z" />
    <glyph glyph-name="aacute" unicode="&#xe1;" horiz-adv-x="510" 
d="M278 725h87l-89 -142h-69zM34 160q0 74 56 122.5t144 48.5q46 0 82.5 -14t54.5 -33v64q0 54 -34 84.5t-92 30.5q-77 0 -153 -45l-32 58q91 57 192 57q102 0 150 -51t48 -139v-343h-68l-9 44q-50 -57 -141 -57q-86 0 -142 48.5t-56 124.5zM114 161q0 -46 36 -77t95 -31
q57 0 93 30.5t36 77.5q0 49 -35.5 78t-94.5 29q-58 0 -94 -30.5t-36 -76.5z" />
    <glyph glyph-name="acircumflex" unicode="&#xe2;" horiz-adv-x="510" 
d="M254 676l-61 -82h-75l94 130h84l94 -130h-74zM34 160q0 74 56 122.5t144 48.5q46 0 82.5 -14t54.5 -33v64q0 54 -34 84.5t-92 30.5q-77 0 -153 -45l-32 58q91 57 192 57q102 0 150 -51t48 -139v-343h-68l-9 44q-50 -57 -141 -57q-86 0 -142 48.5t-56 124.5zM114 161
q0 -46 36 -77t95 -31q57 0 93 30.5t36 77.5q0 49 -35.5 78t-94.5 29q-58 0 -94 -30.5t-36 -76.5z" />
    <glyph glyph-name="atilde" unicode="&#xe3;" horiz-adv-x="510" 
d="M317 601q-28 0 -68 22.5t-58 22.5q-17 0 -27 -12t-11 -32h-57q0 48 26 76.5t68 28.5q27 0 68 -22t57 -22q17 0 27 12t11 32h56q0 -48 -25.5 -77t-66.5 -29zM34 160q0 74 56 122.5t144 48.5q46 0 82.5 -14t54.5 -33v64q0 54 -34 84.5t-92 30.5q-77 0 -153 -45l-32 58
q91 57 192 57q102 0 150 -51t48 -139v-343h-68l-9 44q-50 -57 -141 -57q-86 0 -142 48.5t-56 124.5zM114 161q0 -46 36 -77t95 -31q57 0 93 30.5t36 77.5q0 49 -35.5 78t-94.5 29q-58 0 -94 -30.5t-36 -76.5z" />
    <glyph glyph-name="adieresis" unicode="&#xe4;" horiz-adv-x="510" 
d="M128 653q0 20 14.5 35t35.5 15t35.5 -14.5t14.5 -35.5t-14 -35.5t-36 -14.5q-21 0 -35.5 14.5t-14.5 35.5zM292 653q0 21 14.5 35.5t35.5 14.5t35.5 -15t14.5 -35q0 -21 -14.5 -35.5t-35.5 -14.5q-22 0 -36 14.5t-14 35.5zM34 160q0 74 56 122.5t144 48.5q46 0 82.5 -14
t54.5 -33v64q0 54 -34 84.5t-92 30.5q-77 0 -153 -45l-32 58q91 57 192 57q102 0 150 -51t48 -139v-343h-68l-9 44q-50 -57 -141 -57q-86 0 -142 48.5t-56 124.5zM114 161q0 -46 36 -77t95 -31q57 0 93 30.5t36 77.5q0 49 -35.5 78t-94.5 29q-58 0 -94 -30.5t-36 -76.5z" />
    <glyph glyph-name="aring" unicode="&#xe5;" horiz-adv-x="510" 
d="M166 664q0 38 25.5 62.5t63.5 24.5q40 0 65.5 -24t25.5 -62t-25.5 -63t-64.5 -25t-64.5 24.5t-25.5 62.5zM215 664q0 -19 11 -30.5t30 -11.5t30 11.5t11 31.5q0 18 -11 29.5t-31 11.5q-18 0 -29 -11.5t-11 -30.5zM34 160q0 74 56 122.5t144 48.5q46 0 82.5 -14t54.5 -33
v64q0 54 -34 84.5t-92 30.5q-77 0 -153 -45l-32 58q91 57 192 57q102 0 150 -51t48 -139v-343h-68l-9 44q-50 -57 -141 -57q-86 0 -142 48.5t-56 124.5zM114 161q0 -46 36 -77t95 -31q57 0 93 30.5t36 77.5q0 49 -35.5 78t-94.5 29q-58 0 -94 -30.5t-36 -76.5z" />
    <glyph glyph-name="ae" unicode="&#xe6;" horiz-adv-x="899" 
d="M34 160q0 74 56 122.5t144 48.5q46 0 82.5 -14t54.5 -33v64q0 54 -34 84.5t-92 30.5q-77 0 -153 -45l-32 58q91 57 192 57q137 0 175 -101q33 48 83.5 74.5t109.5 26.5q113 0 180 -73.5t67 -192.5v-24h-417q1 -86 52.5 -136t133.5 -50q104 0 162 81l52 -38
q-27 -45 -80.5 -79t-133.5 -34q-73 0 -130.5 28.5t-88.5 82.5q-19 -46 -66 -78.5t-119 -32.5q-86 0 -142 48.5t-56 124.5zM786 302q-4 78 -51 120.5t-115 42.5q-66 0 -113 -43.5t-54 -119.5h333zM114 161q0 -46 36 -77t95 -31q57 0 92 30t35 78q0 49 -35 78t-93 29
t-94 -30.5t-36 -76.5z" />
    <glyph glyph-name="ccedilla" unicode="&#xe7;" horiz-adv-x="512" 
d="M455 394q-63 66 -154 66q-81 0 -133.5 -57.5t-52.5 -142.5q0 -84 54 -142.5t134 -58.5q86 0 155 69l24 -67q-14 -15 -34.5 -29.5t-62 -29.5t-86.5 -15l-5 -34q37 -4 58.5 -27t21.5 -58q0 -47 -32 -70t-81 -23q-27 0 -42 5l9 51q16 -3 30 -3q56 0 56 41t-57 41l-19 -2
l11 84q-96 17 -156 91t-60 177q0 116 76.5 194.5t189.5 78.5q109 0 183 -71z" />
    <glyph glyph-name="egrave" unicode="&#xe8;" horiz-adv-x="565" 
d="M336 583h-70l-88 142h86zM34 258q0 122 73 198.5t179 76.5q113 0 180 -73.5t67 -192.5q0 -14 -1 -24h-417q1 -86 53 -136t134 -50q104 0 162 81l52 -38q-27 -45 -81 -79t-134 -34q-118 0 -192.5 75.5t-74.5 195.5zM452 302q-4 78 -51 120.5t-115 42.5q-65 0 -114 -45.5
t-53 -117.5h333z" />
    <glyph glyph-name="eacute" unicode="&#xe9;" horiz-adv-x="565" 
d="M307 725h87l-89 -142h-69zM34 258q0 122 73 198.5t179 76.5q113 0 180 -73.5t67 -192.5q0 -14 -1 -24h-417q1 -86 53 -136t134 -50q104 0 162 81l52 -38q-27 -45 -81 -79t-134 -34q-118 0 -192.5 75.5t-74.5 195.5zM452 302q-4 78 -51 120.5t-115 42.5q-65 0 -114 -45.5
t-53 -117.5h333z" />
    <glyph glyph-name="ecircumflex" unicode="&#xea;" horiz-adv-x="565" 
d="M287 676l-61 -82h-75l94 130h84l94 -130h-74zM34 258q0 122 73 198.5t179 76.5q113 0 180 -73.5t67 -192.5q0 -14 -1 -24h-417q1 -86 53 -136t134 -50q104 0 162 81l52 -38q-27 -45 -81 -79t-134 -34q-118 0 -192.5 75.5t-74.5 195.5zM452 302q-4 78 -51 120.5t-115 42.5
q-65 0 -114 -45.5t-53 -117.5h333z" />
    <glyph glyph-name="edieresis" unicode="&#xeb;" horiz-adv-x="565" 
d="M157 653q0 20 14.5 35t35.5 15t35.5 -14.5t14.5 -35.5t-14 -35.5t-36 -14.5q-21 0 -35.5 14.5t-14.5 35.5zM321 653q0 21 14.5 35.5t35.5 14.5t35.5 -15t14.5 -35q0 -21 -14.5 -35.5t-35.5 -14.5q-22 0 -36 14.5t-14 35.5zM34 258q0 122 73 198.5t179 76.5
q113 0 180 -73.5t67 -192.5q0 -14 -1 -24h-417q1 -86 53 -136t134 -50q104 0 162 81l52 -38q-27 -45 -81 -79t-134 -34q-118 0 -192.5 75.5t-74.5 195.5zM452 302q-4 78 -51 120.5t-115 42.5q-65 0 -114 -45.5t-53 -117.5h333z" />
    <glyph glyph-name="igrave" unicode="&#xec;" 
d="M152 583h-70l-88 142h86zM68 520h79v-520h-79v520z" />
    <glyph glyph-name="iacute" unicode="&#xed;" 
d="M133 725h87l-89 -142h-69zM68 520h79v-520h-79v520z" />
    <glyph glyph-name="icircumflex" unicode="&#xee;" 
d="M110 676l-61 -82h-75l94 130h84l94 -130h-74zM68 520h79v-520h-79v520z" />
    <glyph glyph-name="idieresis" unicode="&#xef;" 
d="M-23 653q0 20 14.5 35t35.5 15t35.5 -14.5t14.5 -35.5t-14 -35.5t-36 -14.5q-21 0 -35.5 14.5t-14.5 35.5zM141 653q0 21 14.5 35.5t35.5 14.5t35.5 -15t14.5 -35q0 -21 -14.5 -35.5t-35.5 -14.5q-22 0 -36 14.5t-14 35.5zM68 520h79v-520h-79v520z" />
    <glyph glyph-name="eth" unicode="&#xf0;" horiz-adv-x="591" 
d="M35 248q0 110 72 182t186 72q63 0 108 -31q-21 32 -53.5 64t-57.5 48l-161 -63l-9 58l117 47q-48 34 -109 66l51 39q68 -30 136 -77l123 48l10 -58l-82 -33q186 -149 186 -342q0 -122 -68.5 -201.5t-193.5 -79.5q-113 0 -184 75t-71 186zM116 248q0 -80 48.5 -135
t126.5 -55q87 0 133.5 57.5t46.5 144.5q0 73 -49 124t-125 51q-83 0 -132 -53.5t-49 -133.5z" />
    <glyph glyph-name="ntilde" unicode="&#xf1;" horiz-adv-x="548" 
d="M340 601q-28 0 -68 22.5t-58 22.5q-17 0 -27 -12t-11 -32h-57q0 48 26 76.5t68 28.5q27 0 68 -22t57 -22q17 0 27 12t11 32h56q0 -48 -25.5 -77t-66.5 -29zM301 533q88 0 135.5 -58t47.5 -150v-325h-79v328q0 61 -34.5 97t-88.5 36q-60 0 -97.5 -40.5t-37.5 -104.5v-316
h-79v520h78v-75q20 37 61.5 62.5t93.5 25.5z" />
    <glyph glyph-name="ograve" unicode="&#xf2;" horiz-adv-x="609" 
d="M342 583h-70l-88 142h86zM33 260q0 118 77.5 195.5t194.5 77.5t194 -78t77 -195t-77.5 -195t-194.5 -78t-194 77.5t-77 195.5zM114 260q0 -88 53.5 -144.5t136.5 -56.5q84 0 138 57t54 144t-54 144t-138 57q-83 0 -136.5 -57.5t-53.5 -143.5z" />
    <glyph glyph-name="oacute" unicode="&#xf3;" horiz-adv-x="609" 
d="M326 725h87l-89 -142h-69zM33 260q0 118 77.5 195.5t194.5 77.5t194 -78t77 -195t-77.5 -195t-194.5 -78t-194 77.5t-77 195.5zM114 260q0 -88 53.5 -144.5t136.5 -56.5q84 0 138 57t54 144t-54 144t-138 57q-83 0 -136.5 -57.5t-53.5 -143.5z" />
    <glyph glyph-name="ocircumflex" unicode="&#xf4;" horiz-adv-x="609" 
d="M307 676l-61 -82h-75l94 130h84l94 -130h-74zM33 260q0 118 77.5 195.5t194.5 77.5t194 -78t77 -195t-77.5 -195t-194.5 -78t-194 77.5t-77 195.5zM114 260q0 -88 53.5 -144.5t136.5 -56.5q84 0 138 57t54 144t-54 144t-138 57q-83 0 -136.5 -57.5t-53.5 -143.5z" />
    <glyph glyph-name="otilde" unicode="&#xf5;" horiz-adv-x="609" 
d="M372 601q-28 0 -68 22.5t-58 22.5q-17 0 -27 -12t-11 -32h-57q0 48 26 76.5t68 28.5q27 0 68 -22t57 -22q17 0 27 12t11 32h56q0 -48 -25.5 -77t-66.5 -29zM33 260q0 118 77.5 195.5t194.5 77.5t194 -78t77 -195t-77.5 -195t-194.5 -78t-194 77.5t-77 195.5zM114 260
q0 -88 53.5 -144.5t136.5 -56.5q84 0 138 57t54 144t-54 144t-138 57q-83 0 -136.5 -57.5t-53.5 -143.5z" />
    <glyph glyph-name="odieresis" unicode="&#xf6;" horiz-adv-x="609" 
d="M176 653q0 20 14.5 35t35.5 15t35.5 -14.5t14.5 -35.5t-14 -35.5t-36 -14.5q-21 0 -35.5 14.5t-14.5 35.5zM340 653q0 21 14.5 35.5t35.5 14.5t35.5 -15t14.5 -35q0 -21 -14.5 -35.5t-35.5 -14.5q-22 0 -36 14.5t-14 35.5zM33 260q0 118 77.5 195.5t194.5 77.5t194 -78
t77 -195t-77.5 -195t-194.5 -78t-194 77.5t-77 195.5zM114 260q0 -88 53.5 -144.5t136.5 -56.5q84 0 138 57t54 144t-54 144t-138 57q-83 0 -136.5 -57.5t-53.5 -143.5z" />
    <glyph glyph-name="divide" unicode="&#xf7;" horiz-adv-x="550" 
d="M224 485q0 21 15 36t36 15t35.5 -15t14.5 -36t-14.5 -35.5t-35.5 -14.5t-36 14.5t-15 35.5zM40 345h470v-67h-470v67zM224 137q0 21 15 36t36 15t35.5 -15t14.5 -36q0 -20 -14.5 -35t-35.5 -15t-36 15t-15 35z" />
    <glyph glyph-name="oslash" unicode="&#xf8;" horiz-adv-x="610" 
d="M33 260q0 118 77.5 195.5t194.5 77.5q83 0 148 -42l38 49l46 -37l-38 -48q77 -77 77 -195q0 -117 -77.5 -195t-194.5 -78q-80 0 -142 37l-38 -48l-46 36l37 47q-82 79 -82 201zM114 260q0 -84 50 -139l242 311q-47 29 -102 29q-83 0 -136.5 -57.5t-53.5 -143.5zM496 260
q0 76 -46 132l-241 -308q40 -25 95 -25q84 0 138 57t54 144z" />
    <glyph glyph-name="ugrave" unicode="&#xf9;" horiz-adv-x="543" 
d="M328 583h-70l-88 142h86zM247 -13q-88 0 -136 58t-48 150v325h79v-328q0 -61 34.5 -97t88.5 -36q60 0 97.5 40.5t37.5 104.5v316h80v-520h-79v75q-19 -37 -61 -62.5t-93 -25.5z" />
    <glyph glyph-name="uacute" unicode="&#xfa;" horiz-adv-x="543" 
d="M296 725h87l-89 -142h-69zM247 -13q-88 0 -136 58t-48 150v325h79v-328q0 -61 34.5 -97t88.5 -36q60 0 97.5 40.5t37.5 104.5v316h80v-520h-79v75q-19 -37 -61 -62.5t-93 -25.5z" />
    <glyph glyph-name="ucircumflex" unicode="&#xfb;" horiz-adv-x="543" 
d="M273 676l-61 -82h-75l94 130h84l94 -130h-74zM247 -13q-88 0 -136 58t-48 150v325h79v-328q0 -61 34.5 -97t88.5 -36q60 0 97.5 40.5t37.5 104.5v316h80v-520h-79v75q-19 -37 -61 -62.5t-93 -25.5z" />
    <glyph glyph-name="udieresis" unicode="&#xfc;" horiz-adv-x="543" 
d="M145 653q0 20 14.5 35t35.5 15t35.5 -14.5t14.5 -35.5t-14 -35.5t-36 -14.5q-21 0 -35.5 14.5t-14.5 35.5zM309 653q0 21 14.5 35.5t35.5 14.5t35.5 -15t14.5 -35q0 -21 -14.5 -35.5t-35.5 -14.5q-22 0 -36 14.5t-14 35.5zM247 -13q-88 0 -136 58t-48 150v325h79v-328
q0 -61 34.5 -97t88.5 -36q60 0 97.5 40.5t37.5 104.5v316h80v-520h-79v75q-19 -37 -61 -62.5t-93 -25.5z" />
    <glyph glyph-name="yacute" unicode="&#xfd;" horiz-adv-x="508" 
d="M281 725h87l-89 -142h-69zM143 -179l75 184l-212 515h86l165 -418l160 418h84l-279 -699h-79z" />
    <glyph glyph-name="thorn" unicode="&#xfe;" horiz-adv-x="613" 
d="M68 723h79v-283q70 93 178 93q111 0 182.5 -76.5t71.5 -195.5q0 -121 -69 -197.5t-179 -76.5q-71 0 -118 32t-66 65v-271h-79v910zM144 261q0 -93 51 -147.5t127 -54.5q77 0 126.5 56.5t49.5 145.5q0 90 -50.5 145t-127.5 55q-79 0 -127.5 -58t-48.5 -142z" />
    <glyph glyph-name="ydieresis" unicode="&#xff;" horiz-adv-x="508" 
d="M127 653q0 20 14.5 35t35.5 15t35.5 -14.5t14.5 -35.5t-14 -35.5t-36 -14.5q-21 0 -35.5 14.5t-14.5 35.5zM291 653q0 21 14.5 35.5t35.5 14.5t35.5 -15t14.5 -35q0 -21 -14.5 -35.5t-35.5 -14.5q-22 0 -36 14.5t-14 35.5zM143 -179l75 184l-212 515h86l165 -418l160 418
h84l-279 -699h-79z" />
    <glyph glyph-name="Amacron" unicode="&#x100;" horiz-adv-x="631" 
d="M194 828h242v-63h-242v63zM178 227l-84 -227h-82l262 700h82l262 -700h-82l-84 227h-274zM315 611l-112 -314h225z" />
    <glyph glyph-name="amacron" unicode="&#x101;" horiz-adv-x="510" 
d="M137 692h242v-63h-242v63zM34 160q0 74 56 122.5t144 48.5q46 0 82.5 -14t54.5 -33v64q0 54 -34 84.5t-92 30.5q-77 0 -153 -45l-32 58q91 57 192 57q102 0 150 -51t48 -139v-343h-68l-9 44q-50 -57 -141 -57q-86 0 -142 48.5t-56 124.5zM114 161q0 -46 36 -77t95 -31
q57 0 93 30.5t36 77.5q0 49 -35.5 78t-94.5 29q-58 0 -94 -30.5t-36 -76.5z" />
    <glyph glyph-name="Abreve" unicode="&#x102;" horiz-adv-x="631" 
d="M315 747q-61 0 -94 35.5t-33 90.5h63q0 -71 64 -71q33 0 48.5 19.5t15.5 51.5h63q0 -55 -33 -90.5t-94 -35.5zM178 227l-84 -227h-82l262 700h82l262 -700h-82l-84 227h-274zM315 611l-112 -314h225z" />
    <glyph glyph-name="abreve" unicode="&#x103;" horiz-adv-x="510" 
d="M254 587q-61 0 -94 35.5t-33 90.5h63q0 -71 64 -71q33 0 48.5 19.5t15.5 51.5h63q0 -55 -33 -90.5t-94 -35.5zM34 160q0 74 56 122.5t144 48.5q46 0 82.5 -14t54.5 -33v64q0 54 -34 84.5t-92 30.5q-77 0 -153 -45l-32 58q91 57 192 57q102 0 150 -51t48 -139v-343h-68
l-9 44q-50 -57 -141 -57q-86 0 -142 48.5t-56 124.5zM114 161q0 -46 36 -77t95 -31q57 0 93 30.5t36 77.5q0 49 -35.5 78t-94.5 29q-58 0 -94 -30.5t-36 -76.5z" />
    <glyph glyph-name="Aogonek" unicode="&#x104;" horiz-adv-x="631" 
d="M476 -101q0 34 24 62t53 39h-17l-84 227h-274l-84 -227h-82l262 700h82l262 -700q-22 -8 -46 -31t-24 -52q0 -24 17.5 -36t43.5 -12v-62q-8 -2 -24 -2q-44 0 -76.5 24.5t-32.5 69.5zM315 611l-112 -314h225z" />
    <glyph glyph-name="aogonek" unicode="&#x105;" horiz-adv-x="510" 
d="M308 -101q0 34 23.5 62t51.5 39l-10 44q-50 -57 -141 -57q-86 0 -142 48.5t-56 124.5q0 74 56 122.5t144 48.5q46 0 82.5 -14t54.5 -33v64q0 54 -34 84.5t-92 30.5q-77 0 -153 -45l-32 58q91 57 192 57q102 0 150 -51t48 -139v-343q-22 -8 -46 -31t-24 -52
q0 -24 17.5 -36t43.5 -12v-62q-8 -2 -24 -2q-44 0 -76.5 24.5t-32.5 69.5zM114 161q0 -46 36 -77t95 -31q57 0 93 30.5t36 77.5q0 49 -35.5 78t-94.5 29q-58 0 -94 -30.5t-36 -76.5z" />
    <glyph glyph-name="Cacute" unicode="&#x106;" horiz-adv-x="656" 
d="M396 886h87l-89 -142h-69zM620 67q-18 -16 -44 -32t-77 -32t-105 -16q-153 0 -254 103.5t-101 259.5q0 154 102 258.5t251 104.5q127 0 217 -73l-26 -72q-85 69 -189 69q-116 0 -193.5 -82.5t-77.5 -204.5q0 -124 76.5 -205.5t196.5 -81.5q109 0 199 75z" />
    <glyph glyph-name="cacute" unicode="&#x107;" horiz-adv-x="512" 
d="M317 725h87l-89 -142h-69zM455 394q-63 66 -154 66q-81 0 -133.5 -57.5t-52.5 -142.5q0 -84 54 -142.5t134 -58.5q86 0 155 69l24 -67q-14 -15 -34.5 -29.5t-62 -29.5t-85.5 -15q-115 0 -191 78.5t-76 194.5t76.5 194.5t189.5 78.5q109 0 183 -71z" />
    <glyph glyph-name="Ccircumflex" unicode="&#x108;" horiz-adv-x="656" 
d="M394 831l-61 -82h-75l94 130h84l94 -130h-74zM620 67q-18 -16 -44 -32t-77 -32t-105 -16q-153 0 -254 103.5t-101 259.5q0 154 102 258.5t251 104.5q127 0 217 -73l-26 -72q-85 69 -189 69q-116 0 -193.5 -82.5t-77.5 -204.5q0 -124 76.5 -205.5t196.5 -81.5
q109 0 199 75z" />
    <glyph glyph-name="ccircumflex" unicode="&#x109;" horiz-adv-x="512" 
d="M300 676l-61 -82h-75l94 130h84l94 -130h-74zM455 394q-63 66 -154 66q-81 0 -133.5 -57.5t-52.5 -142.5q0 -84 54 -142.5t134 -58.5q86 0 155 69l24 -67q-14 -15 -34.5 -29.5t-62 -29.5t-85.5 -15q-115 0 -191 78.5t-76 194.5t76.5 194.5t189.5 78.5q109 0 183 -71z" />
    <glyph glyph-name="Cdotaccent" unicode="&#x10a;" horiz-adv-x="656" 
d="M340 810q0 22 16 38t38 16q23 0 39 -15.5t16 -38.5t-16 -39t-39 -16t-38.5 16t-15.5 39zM620 67q-18 -16 -44 -32t-77 -32t-105 -16q-153 0 -254 103.5t-101 259.5q0 154 102 258.5t251 104.5q127 0 217 -73l-26 -72q-85 69 -189 69q-116 0 -193.5 -82.5t-77.5 -204.5
q0 -124 76.5 -205.5t196.5 -81.5q109 0 199 75z" />
    <glyph glyph-name="cdotaccent" unicode="&#x10b;" horiz-adv-x="512" 
d="M246 654q0 22 16 38t38 16q23 0 39 -15.5t16 -38.5t-16 -39t-39 -16t-38.5 16t-15.5 39zM455 394q-63 66 -154 66q-81 0 -133.5 -57.5t-52.5 -142.5q0 -84 54 -142.5t134 -58.5q86 0 155 69l24 -67q-14 -15 -34.5 -29.5t-62 -29.5t-85.5 -15q-115 0 -191 78.5t-76 194.5
t76.5 194.5t189.5 78.5q109 0 183 -71z" />
    <glyph glyph-name="Ccaron" unicode="&#x10c;" horiz-adv-x="656" 
d="M453 879h74l-94 -130h-84l-94 130h75l61 -82zM620 67q-18 -16 -44 -32t-77 -32t-105 -16q-153 0 -254 103.5t-101 259.5q0 154 102 258.5t251 104.5q127 0 217 -73l-26 -72q-85 69 -189 69q-116 0 -193.5 -82.5t-77.5 -204.5q0 -124 76.5 -205.5t196.5 -81.5
q109 0 199 75z" />
    <glyph glyph-name="ccaron" unicode="&#x10d;" horiz-adv-x="512" 
d="M356 724h74l-94 -130h-84l-94 130h75l61 -82zM455 394q-63 66 -154 66q-81 0 -133.5 -57.5t-52.5 -142.5q0 -84 54 -142.5t134 -58.5q86 0 155 69l24 -67q-14 -15 -34.5 -29.5t-62 -29.5t-85.5 -15q-115 0 -191 78.5t-76 194.5t76.5 194.5t189.5 78.5q109 0 183 -71z" />
    <glyph glyph-name="Dcaron" unicode="&#x10e;" horiz-adv-x="637" 
d="M334 879h74l-94 -130h-84l-94 130h75l61 -82zM79 700h144q178 0 276.5 -92.5t98.5 -257.5q0 -172 -98.5 -261t-276.5 -89h-144v700zM239 72q129 0 202.5 71.5t73.5 206.5q0 130 -74.5 203.5t-201.5 73.5h-79v-555h79z" />
    <glyph glyph-name="dcaron" unicode="&#x10f;" horiz-adv-x="615" 
d="M544 0h-77v82q-65 -95 -180 -95q-112 0 -183 76.5t-71 195.5q0 121 69 197.5t179 76.5q71 0 118 -32.5t65 -64.5v287h80v-723zM601 723h82l-29 -170h-60zM467 258q0 94 -50.5 148.5t-126.5 54.5q-77 0 -126.5 -57t-49.5 -146t50.5 -144.5t126.5 -55.5q80 0 128 58t48 142
z" />
    <glyph glyph-name="Dcroat" unicode="&#x110;" horiz-adv-x="637" 
d="M24 390h58v310h145q178 0 276.5 -92.5t98.5 -257.5q0 -171 -98.5 -260.5t-276.5 -89.5h-145v318h-58v72zM243 72q128 0 201.5 71.5t73.5 206.5q0 130 -74 203.5t-201 73.5h-80v-237h145v-72h-145v-246h80z" />
    <glyph glyph-name="dcroat" unicode="&#x111;" horiz-adv-x="612" 
d="M544 0h-77v82q-65 -95 -180 -95q-112 0 -183 76.5t-71 195.5q0 121 69 197.5t179 76.5q71 0 118 -32.5t65 -64.5v149h-129v59h129v79h80v-79h66v-59h-66v-585zM467 258q0 94 -50.5 148.5t-126.5 54.5q-77 0 -126.5 -57t-49.5 -146t50.5 -144.5t126.5 -55.5q80 0 128 58
t48 142z" />
    <glyph glyph-name="Emacron" unicode="&#x112;" horiz-adv-x="474" 
d="M132 828h242v-63h-242v63zM79 700h332v-74h-251v-233h219v-73h-219v-247h262v-73h-343v700z" />
    <glyph glyph-name="emacron" unicode="&#x113;" horiz-adv-x="565" 
d="M169 692h242v-63h-242v63zM34 258q0 122 73 198.5t179 76.5q113 0 180 -73.5t67 -192.5q0 -14 -1 -24h-417q1 -86 53 -136t134 -50q104 0 162 81l52 -38q-27 -45 -81 -79t-134 -34q-118 0 -192.5 75.5t-74.5 195.5zM452 302q-4 78 -51 120.5t-115 42.5q-65 0 -114 -45.5
t-53 -117.5h333z" />
    <glyph glyph-name="Ebreve" unicode="&#x114;" horiz-adv-x="474" 
d="M248 747q-61 0 -94 35.5t-33 90.5h63q0 -71 64 -71q33 0 48.5 19.5t15.5 51.5h63q0 -55 -33 -90.5t-94 -35.5zM79 700h332v-74h-251v-233h219v-73h-219v-247h262v-73h-343v700z" />
    <glyph glyph-name="ebreve" unicode="&#x115;" horiz-adv-x="565" 
d="M286 587q-61 0 -94 35.5t-33 90.5h63q0 -71 64 -71q33 0 48.5 19.5t15.5 51.5h63q0 -55 -33 -90.5t-94 -35.5zM34 258q0 122 73 198.5t179 76.5q113 0 180 -73.5t67 -192.5q0 -14 -1 -24h-417q1 -86 53 -136t134 -50q104 0 162 81l52 -38q-27 -45 -81 -79t-134 -34
q-118 0 -192.5 75.5t-74.5 195.5zM452 302q-4 78 -51 120.5t-115 42.5q-65 0 -114 -45.5t-53 -117.5h333z" />
    <glyph glyph-name="Edotaccent" unicode="&#x116;" horiz-adv-x="474" 
d="M207 810q0 22 15.5 38t38.5 16t39 -15.5t16 -38.5t-16 -39t-39 -16t-38.5 16t-15.5 39zM79 700h332v-74h-251v-233h219v-73h-219v-247h262v-73h-343v700z" />
    <glyph glyph-name="edotaccent" unicode="&#x117;" horiz-adv-x="565" 
d="M235 654q0 22 15.5 38t38.5 16t39 -15.5t16 -38.5t-16 -39t-39 -16t-38.5 16t-15.5 39zM34 258q0 122 73 198.5t179 76.5q113 0 180 -73.5t67 -192.5q0 -14 -1 -24h-417q1 -86 53 -136t134 -50q104 0 162 81l52 -38q-27 -45 -81 -79t-134 -34q-118 0 -192.5 75.5
t-74.5 195.5zM452 302q-4 78 -51 120.5t-115 42.5q-65 0 -114 -45.5t-53 -117.5h333z" />
    <glyph glyph-name="Eogonek" unicode="&#x118;" horiz-adv-x="474" 
d="M79 700h332v-74h-251v-233h219v-73h-219v-247h262v-73q-22 -8 -46 -31t-24 -52q0 -24 17.5 -36t43.5 -12v-62q-8 -2 -24 -2q-44 0 -76.5 24.5t-32.5 69.5q0 35 23.5 62.5t51.5 38.5h-276v700z" />
    <glyph glyph-name="eogonek" unicode="&#x119;" horiz-adv-x="565" 
d="M245 -101q0 54 51 88q-117 2 -189.5 77t-72.5 194q0 122 73 198.5t179 76.5q113 0 180 -73.5t67 -192.5v-24h-418q1 -86 53 -136t134 -50q104 0 162 81l52 -38q-42 -72 -129 -100q-22 -8 -46 -31t-24 -52q0 -24 17.5 -36t43.5 -12v-62q-8 -2 -24 -2q-44 0 -76.5 24.5
t-32.5 69.5zM452 302q-4 78 -51 120.5t-115 42.5q-66 0 -113.5 -43.5t-53.5 -119.5h333z" />
    <glyph glyph-name="Ecaron" unicode="&#x11a;" horiz-adv-x="474" 
d="M322 879h74l-94 -130h-84l-94 130h75l61 -82zM79 700h332v-74h-251v-233h219v-73h-219v-247h262v-73h-343v700z" />
    <glyph glyph-name="ecaron" unicode="&#x11b;" horiz-adv-x="565" 
d="M349 724h74l-94 -130h-84l-94 130h75l61 -82zM34 258q0 122 73 198.5t179 76.5q113 0 180 -73.5t67 -192.5q0 -14 -1 -24h-417q1 -86 53 -136t134 -50q104 0 162 81l52 -38q-27 -45 -81 -79t-134 -34q-118 0 -192.5 75.5t-74.5 195.5zM452 302q-4 78 -51 120.5t-115 42.5
q-65 0 -114 -45.5t-53 -117.5h333z" />
    <glyph glyph-name="Gcircumflex" unicode="&#x11c;" horiz-adv-x="736" 
d="M396 831l-61 -82h-75l94 130h84l94 -130h-74zM393 713q159 0 258 -102l-52 -54q-83 80 -204 80q-120 0 -195.5 -82t-75.5 -206q0 -126 76 -206.5t194 -80.5q53 0 100 14.5t68.5 29t36.5 29.5v147h-156v71h234v-253q-112 -113 -286 -113q-151 0 -251.5 102t-100.5 260
q0 155 100.5 259.5t253.5 104.5z" />
    <glyph glyph-name="gcircumflex" unicode="&#x11d;" horiz-adv-x="607" 
d="M302 676l-61 -82h-75l94 130h84l94 -130h-74zM124 -78q72 -43 157 -43q81 0 132 37.5t51 119.5v46q-7 -11 -18 -23.5t-33 -30.5t-55.5 -29.5t-73.5 -11.5q-111 0 -181 76t-70 196t70 197t180 77q70 0 117 -32t67 -65v84h76v-448q0 -264 -261 -264q-102 0 -186 52z
M467 259q0 92 -51 147t-127 55t-126 -56.5t-50 -145.5t51 -144.5t127 -55.5q79 0 127.5 57t48.5 143z" />
    <glyph glyph-name="Gbreve" unicode="&#x11e;" horiz-adv-x="736" 
d="M389 747q-61 0 -94 35.5t-33 90.5h63q0 -71 64 -71q33 0 48.5 19.5t15.5 51.5h63q0 -55 -33 -90.5t-94 -35.5zM393 713q159 0 258 -102l-52 -54q-83 80 -204 80q-120 0 -195.5 -82t-75.5 -206q0 -126 76 -206.5t194 -80.5q53 0 100 14.5t68.5 29t36.5 29.5v147h-156v71
h234v-253q-112 -113 -286 -113q-151 0 -251.5 102t-100.5 260q0 155 100.5 259.5t253.5 104.5z" />
    <glyph glyph-name="gbreve" unicode="&#x11f;" horiz-adv-x="607" 
d="M302 587q-61 0 -94 35.5t-33 90.5h63q0 -71 64 -71q33 0 48.5 19.5t15.5 51.5h63q0 -55 -33 -90.5t-94 -35.5zM124 -78q72 -43 157 -43q81 0 132 37.5t51 119.5v46q-7 -11 -18 -23.5t-33 -30.5t-55.5 -29.5t-73.5 -11.5q-111 0 -181 76t-70 196t70 197t180 77
q70 0 117 -32t67 -65v84h76v-448q0 -264 -261 -264q-102 0 -186 52zM467 259q0 92 -51 147t-127 55t-126 -56.5t-50 -145.5t51 -144.5t127 -55.5q79 0 127.5 57t48.5 143z" />
    <glyph glyph-name="Gdotaccent" unicode="&#x120;" horiz-adv-x="736" 
d="M341 810q0 22 15.5 38t38.5 16t39 -15.5t16 -38.5t-16 -39t-39 -16t-38.5 16t-15.5 39zM393 713q159 0 258 -102l-52 -54q-83 80 -204 80q-120 0 -195.5 -82t-75.5 -206q0 -126 76 -206.5t194 -80.5q53 0 100 14.5t68.5 29t36.5 29.5v147h-156v71h234v-253
q-112 -113 -286 -113q-151 0 -251.5 102t-100.5 260q0 155 100.5 259.5t253.5 104.5z" />
    <glyph glyph-name="gdotaccent" unicode="&#x121;" horiz-adv-x="607" 
d="M248 654q0 22 16 38t38 16q23 0 39 -15.5t16 -38.5t-16 -39t-39 -16t-38.5 16t-15.5 39zM124 -78q72 -43 157 -43q81 0 132 37.5t51 119.5v46q-7 -11 -18 -23.5t-33 -30.5t-55.5 -29.5t-73.5 -11.5q-111 0 -181 76t-70 196t70 197t180 77q70 0 117 -32t67 -65v84h76v-448
q0 -264 -261 -264q-102 0 -186 52zM467 259q0 92 -51 147t-127 55t-126 -56.5t-50 -145.5t51 -144.5t127 -55.5q79 0 127.5 57t48.5 143z" />
    <glyph glyph-name="uni0122" unicode="&#x122;" horiz-adv-x="736" 
d="M393 713q159 0 258 -102l-52 -54q-83 80 -204 80q-120 0 -195.5 -82t-75.5 -206q0 -126 76 -206.5t194 -80.5q53 0 100 14.5t68.5 29t36.5 29.5v147h-156v71h234v-253q-112 -113 -286 -113q-151 0 -251.5 102t-100.5 260q0 155 100.5 259.5t253.5 104.5zM347 -86
q0 22 14.5 37.5t36.5 15.5q25 0 40.5 -16.5t15.5 -42.5q0 -84 -72 -145l-34 33q37 30 44 67q-20 3 -32.5 17.5t-12.5 33.5z" />
    <glyph glyph-name="uni0123" unicode="&#x123;" horiz-adv-x="607" 
d="M349 627q0 -22 -14.5 -37.5t-36.5 -15.5q-25 0 -40.5 16.5t-15.5 42.5q0 84 72 145l34 -33q-37 -30 -44 -67q20 -3 32.5 -17.5t12.5 -33.5zM124 -78q72 -43 157 -43q81 0 132 37.5t51 119.5v46q-7 -11 -18 -23.5t-33 -30.5t-55.5 -29.5t-73.5 -11.5q-111 0 -181 76
t-70 196t70 197t180 77q70 0 117 -32t67 -65v84h76v-448q0 -264 -261 -264q-102 0 -186 52zM467 259q0 92 -51 147t-127 55t-126 -56.5t-50 -145.5t51 -144.5t127 -55.5q79 0 127.5 57t48.5 143z" />
    <glyph glyph-name="Hcircumflex" unicode="&#x124;" horiz-adv-x="692" 
d="M350 831l-61 -82h-75l94 130h84l94 -130h-74zM79 700h81v-307h372v307h81v-700h-81v319h-372v-319h-81v700z" />
    <glyph glyph-name="hcircumflex" unicode="&#x125;" horiz-adv-x="548" 
d="M277 831l-61 -82h-75l94 130h84l94 -130h-74zM301 533q88 0 136 -58t48 -150v-325h-79v328q0 61 -34.5 97t-88.5 36q-60 0 -98 -40.5t-38 -104.5v-316h-79v723h79v-278q20 37 61.5 62.5t92.5 25.5z" />
    <glyph glyph-name="Hbar" unicode="&#x126;" horiz-adv-x="692" 
d="M79 515h-61v63h61v122h81v-122h372v122h81v-122h61v-63h-61v-515h-81v319h-372v-319h-81v515zM532 393v122h-372v-122h372z" />
    <glyph glyph-name="hbar" unicode="&#x127;" horiz-adv-x="548" 
d="M301 533q88 0 136 -58t48 -150v-325h-79v328q0 61 -34.5 97t-88.5 36q-60 0 -98 -40.5t-38 -104.5v-316h-79v587h-63v59h63v77h79v-77h129v-59h-129v-142q20 37 61.5 62.5t92.5 25.5z" />
    <glyph glyph-name="Itilde" unicode="&#x128;" horiz-adv-x="239" 
d="M185 758q-28 0 -68 22.5t-58 22.5q-17 0 -27 -12t-11 -32h-57q0 48 26 76.5t68 28.5q27 0 68 -22t57 -22q17 0 27 12t11 32h56q0 -48 -25.5 -77t-66.5 -29zM79 700h81v-700h-81v700z" />
    <glyph glyph-name="itilde" unicode="&#x129;" 
d="M173 601q-28 0 -68 22.5t-58 22.5q-17 0 -27 -12t-11 -32h-57q0 48 26 76.5t68 28.5q27 0 68 -22t57 -22q17 0 27 12t11 32h56q0 -48 -25.5 -77t-66.5 -29zM68 520h79v-520h-79v520z" />
    <glyph glyph-name="Imacron" unicode="&#x12a;" horiz-adv-x="239" 
d="M1 828h242v-63h-242v63zM79 700h81v-700h-81v700z" />
    <glyph glyph-name="imacron" unicode="&#x12b;" 
d="M-13 692h242v-63h-242v63zM68 520h79v-520h-79v520z" />
    <glyph glyph-name="Ibreve" unicode="&#x12c;" horiz-adv-x="239" 
d="M121 747q-61 0 -94 35.5t-33 90.5h63q0 -71 64 -71q33 0 48.5 19.5t15.5 51.5h63q0 -55 -33 -90.5t-94 -35.5zM79 700h81v-700h-81v700z" />
    <glyph glyph-name="ibreve" unicode="&#x12d;" 
d="M108 587q-61 0 -94 35.5t-33 90.5h63q0 -71 64 -71q33 0 48.5 19.5t15.5 51.5h63q0 -55 -33 -90.5t-94 -35.5zM68 520h79v-520h-79v520z" />
    <glyph glyph-name="Iogonek" unicode="&#x12e;" horiz-adv-x="239" 
d="M79 700h81v-700q-22 -8 -46 -31t-24 -52q0 -24 17.5 -36t43.5 -12v-62q-8 -2 -24 -2q-44 0 -76.5 24.5t-32.5 69.5q0 35 23.5 62.5t51.5 38.5h-14v700z" />
    <glyph glyph-name="iogonek" unicode="&#x12f;" 
d="M53 654q0 22 15.5 38t38.5 16t39 -15.5t16 -38.5t-16 -39t-39 -16t-38.5 16t-15.5 39zM68 520h79v-520q-22 -8 -46 -31t-24 -52q0 -24 17.5 -36t43.5 -12v-62q-8 -2 -24 -2q-44 0 -76.5 24.5t-32.5 69.5q0 35 23.5 62.5t51.5 38.5h-12v520z" />
    <glyph glyph-name="Idotaccent" unicode="&#x130;" horiz-adv-x="239" 
d="M67 810q0 22 15.5 38t38.5 16t39 -15.5t16 -38.5t-16 -39t-39 -16t-38.5 16t-15.5 39zM79 700h81v-700h-81v700z" />
    <glyph glyph-name="dotlessi" unicode="&#x131;" 
d="M68 520h79v-520h-79v520z" />
    <glyph glyph-name="IJ" unicode="&#x132;" horiz-adv-x="585" 
d="M79 700h81v-700h-81v700zM270 76q33 -9 66 -9q88 0 88 102v531h81v-542q0 -80 -42.5 -122t-117.5 -42q-54 0 -84 10z" />
    <glyph glyph-name="ij" unicode="&#x133;" horiz-adv-x="431" 
d="M53 654q0 22 15.5 38t38.5 16t39 -15.5t16 -38.5t-16 -39t-39 -16t-38.5 16t-15.5 39zM268 654q0 22 16 38t38 16q23 0 39 -15.5t16 -38.5t-16 -39t-39 -16t-38.5 16t-15.5 39zM68 520h79v-520h-79v520zM283 520h79v-537q0 -174 -162 -174l-27 2v68q13 -1 22 -1
q88 0 88 107v535z" />
    <glyph glyph-name="Jcircumflex" unicode="&#x134;" horiz-adv-x="345" 
d="M222 831l-61 -82h-75l94 130h84l94 -130h-74zM31 76q33 -9 66 -9q88 0 88 102v531h81v-542q0 -80 -42.5 -122t-117.5 -42q-54 0 -84 10z" />
    <glyph glyph-name="jcircumflex" unicode="&#x135;" 
d="M108 676l-61 -82h-75l94 130h84l94 -130h-74zM68 520h79v-537q0 -174 -162 -174l-27 2v68q13 -1 22 -1q88 0 88 107v535z" />
    <glyph glyph-name="uni0136" unicode="&#x136;" horiz-adv-x="565" 
d="M79 700h81v-322l279 322h98l-294 -335l306 -365h-99l-290 352v-352h-81v700zM247 -86q0 22 14.5 37.5t36.5 15.5q25 0 40.5 -16.5t15.5 -42.5q0 -84 -72 -145l-34 33q37 30 44 67q-20 3 -32.5 17.5t-12.5 33.5z" />
    <glyph glyph-name="uni0137" unicode="&#x137;" horiz-adv-x="478" 
d="M68 723h79v-426l212 223h100l-224 -233l237 -287h-102l-223 277v-277h-79v723zM202 -86q0 22 14.5 37.5t36.5 15.5q25 0 40.5 -16.5t15.5 -42.5q0 -84 -72 -145l-34 33q37 30 44 67q-20 3 -32.5 17.5t-12.5 33.5z" />
    <glyph glyph-name="kgreenlandic" unicode="&#x138;" horiz-adv-x="478" 
d="M68 520h79v-229l212 229h100l-224 -239l237 -281h-102l-223 271v-271h-79v520z" />
    <glyph glyph-name="Lacute" unicode="&#x139;" horiz-adv-x="449" 
d="M156 886h87l-89 -142h-69zM79 700h81v-627h262v-73h-343v700z" />
    <glyph glyph-name="lacute" unicode="&#x13a;" 
d="M139 892h87l-89 -142h-69zM68 723h79v-723h-79v723z" />
    <glyph glyph-name="uni013B" unicode="&#x13b;" horiz-adv-x="449" 
d="M79 700h81v-627h262v-73h-343v700zM206 -86q0 22 14.5 37.5t36.5 15.5q25 0 40.5 -16.5t15.5 -42.5q0 -84 -72 -145l-34 33q37 30 44 67q-20 3 -32.5 17.5t-12.5 33.5z" />
    <glyph glyph-name="uni013C" unicode="&#x13c;" 
d="M68 723h79v-723h-79v723zM57 -86q0 22 14.5 37.5t36.5 15.5q25 0 40.5 -16.5t15.5 -42.5q0 -84 -72 -145l-34 33q37 30 44 67q-20 3 -32.5 17.5t-12.5 33.5z" />
    <glyph glyph-name="Lcaron" unicode="&#x13d;" horiz-adv-x="455" 
d="M79 700h81v-627h262v-73h-343v700zM289 700h82l-29 -170h-60z" />
    <glyph glyph-name="lcaron" unicode="&#x13e;" horiz-adv-x="219" 
d="M68 723h79v-723h-79v723zM191 723h82l-29 -170h-60z" />
    <glyph glyph-name="Ldot" unicode="&#x13f;" horiz-adv-x="449" 
d="M79 700h81v-627h262v-73h-343v700zM262 368q0 23 16.5 39.5t39.5 16.5t40 -16.5t17 -39.5t-17 -40t-40 -17t-39.5 17t-16.5 40z" />
    <glyph glyph-name="ldot" unicode="&#x140;" horiz-adv-x="327" 
d="M68 723h79v-723h-79v723zM191 327q0 23 16.5 39.5t39.5 16.5t40 -16.5t17 -39.5t-17 -40t-40 -17t-39.5 17t-16.5 40z" />
    <glyph glyph-name="Lslash" unicode="&#x141;" horiz-adv-x="449" 
d="M20 318l59 35v347h81v-300l124 76v-81l-124 -74v-248h262v-73h-343v274l-59 -34v78z" />
    <glyph glyph-name="lslash" unicode="&#x142;" horiz-adv-x="252" 
d="M18 357l65 42v324h79v-275l69 46v-82l-69 -45v-367h-79v319l-65 -42v80z" />
    <glyph glyph-name="Nacute" unicode="&#x143;" horiz-adv-x="704" 
d="M387 886h87l-89 -142h-69zM78 700h81l386 -557v557h80v-700h-80l-386 555v-555h-81v700z" />
    <glyph glyph-name="nacute" unicode="&#x144;" horiz-adv-x="548" 
d="M301 725h87l-89 -142h-69zM301 533q88 0 135.5 -58t47.5 -150v-325h-79v328q0 61 -34.5 97t-88.5 36q-60 0 -97.5 -40.5t-37.5 -104.5v-316h-79v520h78v-75q20 37 61.5 62.5t93.5 25.5z" />
    <glyph glyph-name="uni0145" unicode="&#x145;" horiz-adv-x="704" 
d="M78 700h81l386 -557v557h80v-700h-80l-386 555v-555h-81v700zM298 -86q0 22 14.5 37.5t36.5 15.5q25 0 40.5 -16.5t15.5 -42.5q0 -84 -72 -145l-34 33q37 30 44 67q-20 3 -32.5 17.5t-12.5 33.5z" />
    <glyph glyph-name="uni0146" unicode="&#x146;" horiz-adv-x="548" 
d="M301 533q88 0 135.5 -58t47.5 -150v-325h-79v328q0 61 -34.5 97t-88.5 36q-60 0 -97.5 -40.5t-37.5 -104.5v-316h-79v520h78v-75q20 37 61.5 62.5t93.5 25.5zM221 -86q0 22 14.5 37.5t36.5 15.5q25 0 40.5 -16.5t15.5 -42.5q0 -84 -72 -145l-34 33q37 30 44 67
q-20 3 -32.5 17.5t-12.5 33.5z" />
    <glyph glyph-name="Ncaron" unicode="&#x147;" horiz-adv-x="704" 
d="M415 879h74l-94 -130h-84l-94 130h75l61 -82zM78 700h81l386 -557v557h80v-700h-80l-386 555v-555h-81v700z" />
    <glyph glyph-name="ncaron" unicode="&#x148;" horiz-adv-x="548" 
d="M347 724h74l-94 -130h-84l-94 130h75l61 -82zM301 533q88 0 135.5 -58t47.5 -150v-325h-79v328q0 61 -34.5 97t-88.5 36q-60 0 -97.5 -40.5t-37.5 -104.5v-316h-79v520h78v-75q20 37 61.5 62.5t93.5 25.5z" />
    <glyph glyph-name="napostrophe" unicode="&#x149;" horiz-adv-x="573" 
d="M-14 663q0 22 14.5 37.5t36.5 15.5q25 0 40.5 -16.5t15.5 -42.5q0 -84 -72 -145l-34 33q37 30 44 67q-20 3 -32.5 17.5t-12.5 33.5zM326 533q88 0 135.5 -58t47.5 -150v-325h-79v328q0 61 -34.5 97t-88.5 36q-60 0 -97.5 -40.5t-37.5 -104.5v-316h-79v520h78v-75
q20 37 61.5 62.5t93.5 25.5z" />
    <glyph glyph-name="Eng" unicode="&#x14a;" horiz-adv-x="704" 
d="M391 -108q33 -9 66 -9q88 0 88 102v15l-386 570v-570h-81v700h81l386 -572v572h80v-726q0 -80 -42 -122t-117 -42q-54 0 -84 10z" />
    <glyph glyph-name="eng" unicode="&#x14b;" horiz-adv-x="548" 
d="M405 328q0 61 -34.5 97t-88.5 36q-60 0 -97.5 -40.5t-37.5 -104.5v-316h-79v520h78v-75q20 37 61.5 62.5t93.5 25.5q88 0 135.5 -58t47.5 -150v-342q0 -174 -162 -174l-27 2v68q13 -1 23 -1q87 0 87 107v343z" />
    <glyph glyph-name="Omacron" unicode="&#x14c;" horiz-adv-x="791" 
d="M274 828h242v-63h-242v63zM38 350q0 155 102.5 259t254.5 104t254.5 -104.5t102.5 -258.5q0 -155 -102.5 -259t-255.5 -104q-152 0 -254 103.5t-102 259.5zM122 350q0 -124 78 -205.5t195 -81.5t195 81.5t78 205.5q0 123 -78.5 205t-194.5 82t-194.5 -82t-78.5 -205z" />
    <glyph glyph-name="omacron" unicode="&#x14d;" horiz-adv-x="609" 
d="M186 692h242v-63h-242v63zM33 260q0 118 77.5 195.5t194.5 77.5t194 -78t77 -195t-77.5 -195t-194.5 -78t-194 77.5t-77 195.5zM114 260q0 -88 53.5 -144.5t136.5 -56.5q84 0 138 57t54 144t-54 144t-138 57q-83 0 -136.5 -57.5t-53.5 -143.5z" />
    <glyph glyph-name="Obreve" unicode="&#x14e;" horiz-adv-x="791" 
d="M398 747q-61 0 -94 35.5t-33 90.5h63q0 -71 64 -71q33 0 48.5 19.5t15.5 51.5h63q0 -55 -33 -90.5t-94 -35.5zM38 350q0 155 102.5 259t254.5 104t254.5 -104.5t102.5 -258.5q0 -155 -102.5 -259t-255.5 -104q-152 0 -254 103.5t-102 259.5zM122 350q0 -124 78 -205.5
t195 -81.5t195 81.5t78 205.5q0 123 -78.5 205t-194.5 82t-194.5 -82t-78.5 -205z" />
    <glyph glyph-name="obreve" unicode="&#x14f;" horiz-adv-x="609" 
d="M304 587q-61 0 -94 35.5t-33 90.5h63q0 -71 64 -71q33 0 48.5 19.5t15.5 51.5h63q0 -55 -33 -90.5t-94 -35.5zM33 260q0 118 77.5 195.5t194.5 77.5t194 -78t77 -195t-77.5 -195t-194.5 -78t-194 77.5t-77 195.5zM114 260q0 -88 53.5 -144.5t136.5 -56.5q84 0 138 57
t54 144t-54 144t-138 57q-83 0 -136.5 -57.5t-53.5 -143.5z" />
    <glyph glyph-name="Ohungarumlaut" unicode="&#x150;" horiz-adv-x="791" 
d="M348 886h83l-89 -142h-65zM474 886h83l-89 -142h-65zM38 350q0 155 102.5 259t254.5 104t254.5 -104.5t102.5 -258.5q0 -155 -102.5 -259t-255.5 -104q-152 0 -254 103.5t-102 259.5zM122 350q0 -124 78 -205.5t195 -81.5t195 81.5t78 205.5q0 123 -78.5 205t-194.5 82
t-194.5 -82t-78.5 -205z" />
    <glyph glyph-name="ohungarumlaut" unicode="&#x151;" horiz-adv-x="609" 
d="M269 725h83l-89 -142h-65zM395 725h83l-89 -142h-65zM33 260q0 118 77.5 195.5t194.5 77.5t194 -78t77 -195t-77.5 -195t-194.5 -78t-194 77.5t-77 195.5zM114 260q0 -88 53.5 -144.5t136.5 -56.5q84 0 138 57t54 144t-54 144t-138 57q-83 0 -136.5 -57.5t-53.5 -143.5z
" />
    <glyph glyph-name="OE" unicode="&#x152;" horiz-adv-x="1080" 
d="M38 350q0 155 102.5 259t254.5 104q48 0 98 -13h524v-74h-386q103 -92 118 -233h236v-73h-234q-12 -152 -121 -247h398v-73h-536q-50 -13 -98 -13q-152 0 -254 103.5t-102 259.5zM122 350q0 -124 78 -205.5t195 -81.5t195 81.5t78 205.5q0 123 -78.5 205t-194.5 82
t-194.5 -82t-78.5 -205z" />
    <glyph glyph-name="oe" unicode="&#x153;" horiz-adv-x="1025" 
d="M33 260q0 118 77.5 195.5t194.5 77.5q75 0 135 -35t94 -95q31 61 87.5 95.5t124.5 34.5q114 0 181 -73.5t67 -192.5q0 -20 -1 -24h-417q1 -87 52.5 -136.5t134.5 -49.5q103 0 161 81l53 -38q-28 -46 -81.5 -79.5t-133.5 -33.5q-77 0 -137 34.5t-91 95.5q-33 -60 -94 -95
t-136 -35q-117 0 -194 77.5t-77 195.5zM912 302q-4 78 -50.5 120.5t-115.5 42.5q-66 0 -113 -43.5t-54 -119.5h333zM114 260q0 -88 53.5 -144.5t136.5 -56.5q84 0 138 57t54 144t-54 144t-138 57q-83 0 -136.5 -57.5t-53.5 -143.5z" />
    <glyph glyph-name="Racute" unicode="&#x154;" horiz-adv-x="547" 
d="M285 886h87l-89 -142h-69zM79 700h178q106 0 162 -51t56 -143q0 -65 -31.5 -115.5t-90.5 -69.5l174 -321h-90l-158 304h-119v-304h-81v700zM257 375q133 0 133 130q0 123 -138 123h-92v-253h97z" />
    <glyph glyph-name="racute" unicode="&#x155;" horiz-adv-x="321" 
d="M209 725h87l-89 -142h-69zM301 454q-154 0 -154 -205v-249h-79v520h78v-87q14 42 56.5 71t98.5 29v-79z" />
    <glyph glyph-name="uni0156" unicode="&#x156;" horiz-adv-x="547" 
d="M79 700h178q106 0 162 -51t56 -143q0 -65 -31.5 -115.5t-90.5 -69.5l174 -321h-90l-158 304h-119v-304h-81v700zM257 375q133 0 133 130q0 123 -138 123h-92v-253h97zM225 -86q0 22 14.5 37.5t36.5 15.5q25 0 40.5 -16.5t15.5 -42.5q0 -84 -72 -145l-34 33q37 30 44 67
q-20 3 -32.5 17.5t-12.5 33.5z" />
    <glyph glyph-name="uni0157" unicode="&#x157;" horiz-adv-x="321" 
d="M301 454q-154 0 -154 -205v-249h-79v520h78v-87q14 42 56.5 71t98.5 29v-79zM77 -86q0 22 14.5 37.5t36.5 15.5q25 0 40.5 -16.5t15.5 -42.5q0 -84 -72 -145l-34 33q37 30 44 67q-20 3 -32.5 17.5t-12.5 33.5z" />
    <glyph glyph-name="Rcaron" unicode="&#x158;" horiz-adv-x="547" 
d="M317 879h74l-94 -130h-84l-94 130h75l61 -82zM79 700h178q106 0 162 -51t56 -143q0 -65 -31.5 -115.5t-90.5 -69.5l174 -321h-90l-158 304h-119v-304h-81v700zM257 375q133 0 133 130q0 123 -138 123h-92v-253h97z" />
    <glyph glyph-name="rcaron" unicode="&#x159;" horiz-adv-x="321" 
d="M236 724h74l-94 -130h-84l-94 130h75l61 -82zM301 454q-154 0 -154 -205v-249h-79v520h78v-87q14 42 56.5 71t98.5 29v-79z" />
    <glyph glyph-name="Sacute" unicode="&#x15a;" horiz-adv-x="506" 
d="M278 886h87l-89 -142h-69zM103 171q38 -109 153 -109q57 0 92 31t35 85q0 41 -24.5 71.5t-60.5 48t-79 39.5t-79 43.5t-60.5 61t-24.5 92.5q0 77 54.5 128t145.5 51q83 0 131.5 -42.5t66.5 -91.5l-68 -28q-40 88 -131 88q-56 0 -87 -30t-31 -75q0 -44 34 -75.5t82 -53.5
t96.5 -47t82.5 -69t34 -106q0 -85 -58 -140.5t-154 -55.5q-92 0 -145.5 46t-73.5 108z" />
    <glyph glyph-name="sacute" unicode="&#x15b;" horiz-adv-x="417" 
d="M231 725h87l-89 -142h-69zM84 134q43 -80 130 -80q41 0 68.5 22.5t27.5 60.5q0 33 -27 55t-65 36.5t-76.5 31.5t-65.5 50t-27 82q0 64 47.5 102.5t119.5 38.5q65 0 106.5 -31.5t54.5 -68.5l-58 -33q-33 67 -108 67q-37 0 -61.5 -19.5t-24.5 -52.5q0 -32 27 -53.5
t65.5 -35.5t77 -30.5t65.5 -50.5t27 -84q0 -68 -50 -111t-127 -43q-129 0 -181 111z" />
    <glyph glyph-name="Scircumflex" unicode="&#x15c;" horiz-adv-x="506" 
d="M254 831l-61 -82h-75l94 130h84l94 -130h-74zM103 171q38 -109 153 -109q57 0 92 31t35 85q0 41 -24.5 71.5t-60.5 48t-79 39.5t-79 43.5t-60.5 61t-24.5 92.5q0 77 54.5 128t145.5 51q83 0 131.5 -42.5t66.5 -91.5l-68 -28q-40 88 -131 88q-56 0 -87 -30t-31 -75
q0 -44 34 -75.5t82 -53.5t96.5 -47t82.5 -69t34 -106q0 -85 -58 -140.5t-154 -55.5q-92 0 -145.5 46t-73.5 108z" />
    <glyph glyph-name="scircumflex" unicode="&#x15d;" horiz-adv-x="417" 
d="M217 676l-61 -82h-75l94 130h84l94 -130h-74zM84 134q43 -80 130 -80q41 0 68.5 22.5t27.5 60.5q0 33 -27 55t-65 36.5t-76.5 31.5t-65.5 50t-27 82q0 64 47.5 102.5t119.5 38.5q65 0 106.5 -31.5t54.5 -68.5l-58 -33q-33 67 -108 67q-37 0 -61.5 -19.5t-24.5 -52.5
q0 -32 27 -53.5t65.5 -35.5t77 -30.5t65.5 -50.5t27 -84q0 -68 -50 -111t-127 -43q-129 0 -181 111z" />
    <glyph glyph-name="Scedilla" unicode="&#x15e;" horiz-adv-x="506" 
d="M103 171q38 -109 153 -109q57 0 92 31t35 85q0 41 -24.5 71.5t-60.5 48t-79 39.5t-79 43.5t-60.5 61t-24.5 92.5q0 77 54.5 128t145.5 51q83 0 131.5 -42.5t66.5 -91.5l-68 -28q-40 88 -131 88q-56 0 -87 -30t-31 -75q0 -44 34 -75.5t82 -53.5t96.5 -47t82.5 -69t34 -106
q0 -79 -51.5 -133.5t-138.5 -61.5l-5 -35q37 -4 58.5 -27t21.5 -58q0 -47 -32 -70t-81 -23q-27 0 -42 5l9 51q16 -3 30 -3q56 0 56 41t-57 41l-19 -2l11 81q-79 7 -126 51t-65 101z" />
    <glyph glyph-name="scedilla" unicode="&#x15f;" horiz-adv-x="417" 
d="M84 134q43 -80 130 -80q41 0 68.5 22.5t27.5 60.5q0 33 -27 55t-65 36.5t-76.5 31.5t-65.5 50t-27 82q0 64 47.5 102.5t119.5 38.5q65 0 106.5 -31.5t54.5 -68.5l-58 -33q-33 67 -108 67q-37 0 -61.5 -19.5t-24.5 -52.5q0 -32 27 -53.5t65.5 -35.5t77 -30.5t65.5 -50.5
t27 -84q0 -64 -44.5 -106t-113.5 -47l-5 -35q37 -4 58.5 -27t21.5 -58q0 -47 -32 -70t-81 -23q-27 0 -42 5l9 51q16 -3 30 -3q56 0 56 41t-57 41l-19 -2l11 81q-107 13 -150 109z" />
    <glyph glyph-name="Scaron" unicode="&#x160;" horiz-adv-x="506" 
d="M313 879h74l-94 -130h-84l-94 130h75l61 -82zM103 171q38 -109 153 -109q57 0 92 31t35 85q0 41 -24.5 71.5t-60.5 48t-79 39.5t-79 43.5t-60.5 61t-24.5 92.5q0 77 54.5 128t145.5 51q83 0 131.5 -42.5t66.5 -91.5l-68 -28q-40 88 -131 88q-56 0 -87 -30t-31 -75
q0 -44 34 -75.5t82 -53.5t96.5 -47t82.5 -69t34 -106q0 -85 -58 -140.5t-154 -55.5q-92 0 -145.5 46t-73.5 108z" />
    <glyph glyph-name="scaron" unicode="&#x161;" horiz-adv-x="417" 
d="M278 724h74l-94 -130h-84l-94 130h75l61 -82zM84 134q43 -80 130 -80q41 0 68.5 22.5t27.5 60.5q0 33 -27 55t-65 36.5t-76.5 31.5t-65.5 50t-27 82q0 64 47.5 102.5t119.5 38.5q65 0 106.5 -31.5t54.5 -68.5l-58 -33q-33 67 -108 67q-37 0 -61.5 -19.5t-24.5 -52.5
q0 -32 27 -53.5t65.5 -35.5t77 -30.5t65.5 -50.5t27 -84q0 -68 -50 -111t-127 -43q-129 0 -181 111z" />
    <glyph glyph-name="uni0162" unicode="&#x162;" horiz-adv-x="511" 
d="M210 626h-189v74h458v-74h-188v-626h-21l-6 -47q37 -4 58.5 -27t21.5 -58q0 -47 -32 -70t-81 -23q-27 0 -42 5l9 51q16 -3 30 -3q56 0 56 41t-57 41l-19 -2l12 92h-10v626z" />
    <glyph glyph-name="uni0163" unicode="&#x163;" horiz-adv-x="295" 
d="M74 629h79v-109h114v-67h-114v-268q0 -70 21.5 -95t74.5 -25l22 1v-70q-21 -3 -48 -3l-25 2l-6 -42q37 -4 58.5 -27t21.5 -58q0 -47 -32 -70t-81 -23q-27 0 -42 5l9 51q16 -3 30 -3q56 0 56 41t-57 41l-19 -2l14 100q-76 38 -76 170v275h-61v67h61v109z" />
    <glyph glyph-name="Tcaron" unicode="&#x164;" horiz-adv-x="511" 
d="M314 879h74l-94 -130h-84l-94 130h75l61 -82zM210 626h-189v74h458v-74h-188v-626h-81v626z" />
    <glyph glyph-name="tcaron" unicode="&#x165;" horiz-adv-x="295" 
d="M212 723h82l-29 -166h-60zM74 629h79v-109h114v-67h-114v-268q0 -70 21.5 -95t74.5 -25l22 1v-70q-21 -3 -48 -3q-149 0 -149 185v275h-61v67h61v109z" />
    <glyph glyph-name="Tbar" unicode="&#x166;" horiz-adv-x="511" 
d="M84 407h126v219h-189v74h458v-74h-188v-219h139v-65h-139v-342h-81v342h-126v65z" />
    <glyph glyph-name="tbar" unicode="&#x167;" horiz-adv-x="295" 
d="M74 279h-61v60h61v114h-61v67h61v109h79v-109h114v-67h-114v-114h111v-60h-111v-102q0 -64 22 -88t74 -24l22 1v-70q-21 -3 -48 -3q-149 0 -149 185v101z" />
    <glyph glyph-name="Utilde" unicode="&#x168;" horiz-adv-x="672" 
d="M410 758q-28 0 -68 22.5t-58 22.5q-17 0 -27 -12t-11 -32h-57q0 48 26 76.5t68 28.5q27 0 68 -22t57 -22q17 0 27 12t11 32h56q0 -48 -25.5 -77t-66.5 -29zM336 -13q-124 0 -192.5 71.5t-68.5 192.5v449h81v-448q0 -89 46.5 -139.5t133.5 -50.5t134 51t47 140v447h80
v-448q0 -120 -69 -192.5t-192 -72.5z" />
    <glyph glyph-name="utilde" unicode="&#x169;" horiz-adv-x="543" 
d="M339 601q-28 0 -68 22.5t-58 22.5q-17 0 -27 -12t-11 -32h-57q0 48 26 76.5t68 28.5q27 0 68 -22t57 -22q17 0 27 12t11 32h56q0 -48 -25.5 -77t-66.5 -29zM247 -13q-88 0 -136 58t-48 150v325h79v-328q0 -61 34.5 -97t88.5 -36q60 0 97.5 40.5t37.5 104.5v316h80v-520
h-79v75q-19 -37 -61 -62.5t-93 -25.5z" />
    <glyph glyph-name="Umacron" unicode="&#x16a;" horiz-adv-x="675" 
d="M224 828h242v-63h-242v63zM336 -13q-124 0 -192.5 71.5t-68.5 192.5v449h81v-448q0 -89 46.5 -139.5t133.5 -50.5t134 51t47 140v447h80v-448q0 -120 -69 -192.5t-192 -72.5z" />
    <glyph glyph-name="umacron" unicode="&#x16b;" horiz-adv-x="543" 
d="M155 692h242v-63h-242v63zM247 -13q-88 0 -136 58t-48 150v325h79v-328q0 -61 34.5 -97t88.5 -36q60 0 97.5 40.5t37.5 104.5v316h80v-520h-79v75q-19 -37 -61 -62.5t-93 -25.5z" />
    <glyph glyph-name="Ubreve" unicode="&#x16c;" horiz-adv-x="672" 
d="M341 747q-61 0 -94 35.5t-33 90.5h63q0 -71 64 -71q33 0 48.5 19.5t15.5 51.5h63q0 -55 -33 -90.5t-94 -35.5zM336 -13q-124 0 -192.5 71.5t-68.5 192.5v449h81v-448q0 -89 46.5 -139.5t133.5 -50.5t134 51t47 140v447h80v-448q0 -120 -69 -192.5t-192 -72.5z" />
    <glyph glyph-name="ubreve" unicode="&#x16d;" horiz-adv-x="543" 
d="M274 587q-61 0 -94 35.5t-33 90.5h63q0 -71 64 -71q33 0 48.5 19.5t15.5 51.5h63q0 -55 -33 -90.5t-94 -35.5zM247 -13q-88 0 -136 58t-48 150v325h79v-328q0 -61 34.5 -97t88.5 -36q60 0 97.5 40.5t37.5 104.5v316h80v-520h-79v75q-19 -37 -61 -62.5t-93 -25.5z" />
    <glyph glyph-name="Uring" unicode="&#x16e;" horiz-adv-x="672" 
d="M252 827q0 38 25.5 62.5t63.5 24.5q40 0 65.5 -24t25.5 -62t-25.5 -63t-64.5 -25t-64.5 24.5t-25.5 62.5zM301 827q0 -19 11 -30.5t30 -11.5t30 11.5t11 31.5q0 18 -11 29.5t-31 11.5q-18 0 -29 -11.5t-11 -30.5zM336 -13q-124 0 -192.5 71.5t-68.5 192.5v449h81v-448
q0 -89 46.5 -139.5t133.5 -50.5t134 51t47 140v447h80v-448q0 -120 -69 -192.5t-192 -72.5z" />
    <glyph glyph-name="uring" unicode="&#x16f;" horiz-adv-x="543" 
d="M185 664q0 38 25.5 62.5t63.5 24.5q40 0 65.5 -24t25.5 -62t-25.5 -63t-64.5 -25t-64.5 24.5t-25.5 62.5zM234 664q0 -19 11 -30.5t30 -11.5t30 11.5t11 31.5q0 18 -11 29.5t-31 11.5q-18 0 -29 -11.5t-11 -30.5zM247 -13q-88 0 -136 58t-48 150v325h79v-328
q0 -61 34.5 -97t88.5 -36q60 0 97.5 40.5t37.5 104.5v316h80v-520h-79v75q-19 -37 -61 -62.5t-93 -25.5z" />
    <glyph glyph-name="Uhungarumlaut" unicode="&#x170;" horiz-adv-x="675" 
d="M300 886h83l-89 -142h-65zM426 886h83l-89 -142h-65zM336 -13q-124 0 -192.5 71.5t-68.5 192.5v449h81v-448q0 -89 46.5 -139.5t133.5 -50.5t134 51t47 140v447h80v-448q0 -120 -69 -192.5t-192 -72.5z" />
    <glyph glyph-name="uhungarumlaut" unicode="&#x171;" horiz-adv-x="543" 
d="M237 725h83l-89 -142h-65zM363 725h83l-89 -142h-65zM247 -13q-88 0 -136 58t-48 150v325h79v-328q0 -61 34.5 -97t88.5 -36q60 0 97.5 40.5t37.5 104.5v316h80v-520h-79v75q-19 -37 -61 -62.5t-93 -25.5z" />
    <glyph glyph-name="Uogonek" unicode="&#x172;" horiz-adv-x="672" 
d="M337 -13q-125 0 -193.5 71.5t-68.5 192.5v449h81v-448q0 -89 46.5 -139.5t133.5 -50.5t134 51t47 140v447h80v-448q0 -96 -45 -162.5t-127 -90.5q-22 -9 -44.5 -31.5t-22.5 -50.5q0 -24 17.5 -36t43.5 -12v-62q-8 -2 -24 -2q-44 0 -76.5 24.5t-32.5 69.5q0 54 51 88z" />
    <glyph glyph-name="uogonek" unicode="&#x173;" horiz-adv-x="543" 
d="M338 -101q0 35 23.5 62.5t51.5 38.5h-12v75q-19 -37 -61 -62.5t-93 -25.5q-88 0 -136 58t-48 150v325h79v-328q0 -61 34.5 -97t88.5 -36q60 0 97.5 40.5t37.5 104.5v316h80v-520q-22 -8 -46 -31t-24 -52q0 -24 17.5 -36t43.5 -12v-62q-8 -2 -24 -2q-44 0 -76.5 24.5
t-32.5 69.5z" />
    <glyph glyph-name="Wcircumflex" unicode="&#x174;" horiz-adv-x="943" 
d="M472 831l-61 -82h-75l94 130h84l94 -130h-74zM471 581l-170 -581h-90l-200 700h87l161 -597l172 597h80l172 -597l162 597h86l-199 -700h-91z" />
    <glyph glyph-name="wcircumflex" unicode="&#x175;" horiz-adv-x="816" 
d="M408 676l-61 -82h-75l94 130h84l94 -130h-74zM408 413l-139 -413h-87l-175 520h86l136 -428q1 3 140 428h78l139 -428l137 428h86l-176 -520h-87z" />
    <glyph glyph-name="Ycircumflex" unicode="&#x176;" horiz-adv-x="532" 
d="M267 831l-61 -82h-75l94 130h84l94 -130h-74zM226 328l-217 372h93l164 -295l167 295h90l-217 -372v-328h-80v328z" />
    <glyph glyph-name="ycircumflex" unicode="&#x177;" horiz-adv-x="508" 
d="M258 676l-61 -82h-75l94 130h84l94 -130h-74zM143 -179l75 184l-212 515h86l165 -418l160 418h84l-279 -699h-79z" />
    <glyph glyph-name="Ydieresis" unicode="&#x178;" horiz-adv-x="532" 
d="M137 828q0 20 14.5 35t35.5 15t35.5 -14.5t14.5 -35.5t-14 -35.5t-36 -14.5q-21 0 -35.5 14.5t-14.5 35.5zM301 828q0 21 14.5 35.5t35.5 14.5t35.5 -15t14.5 -35q0 -21 -14.5 -35.5t-35.5 -14.5q-22 0 -36 14.5t-14 35.5zM226 328l-217 372h93l164 -295l167 295h90
l-217 -372v-328h-80v328z" />
    <glyph glyph-name="Zacute" unicode="&#x179;" horiz-adv-x="594" 
d="M322 886h87l-89 -142h-69zM35 59l412 568h-399v73h504v-60l-413 -567h415v-73h-519v59z" />
    <glyph glyph-name="zacute" unicode="&#x17a;" horiz-adv-x="462" 
d="M246 725h87l-89 -142h-69zM32 56l298 396h-289v68h382v-57l-297 -396h302v-67h-396v56z" />
    <glyph glyph-name="Zdotaccent" unicode="&#x17b;" horiz-adv-x="594" 
d="M244 810q0 22 16 38t38 16q23 0 39 -15.5t16 -38.5t-16 -39t-39 -16t-38.5 16t-15.5 39zM35 59l412 568h-399v73h504v-60l-413 -567h415v-73h-519v59z" />
    <glyph glyph-name="zdotaccent" unicode="&#x17c;" horiz-adv-x="462" 
d="M178 654q0 22 16 38t38 16q23 0 39 -15.5t16 -38.5t-16 -39t-39 -16t-38.5 16t-15.5 39zM32 56l298 396h-289v68h382v-57l-297 -396h302v-67h-396v56z" />
    <glyph glyph-name="Zcaron" unicode="&#x17d;" horiz-adv-x="594" 
d="M358 879h74l-94 -130h-84l-94 130h75l61 -82zM35 59l412 568h-399v73h504v-60l-413 -567h415v-73h-519v59z" />
    <glyph glyph-name="zcaron" unicode="&#x17e;" horiz-adv-x="462" 
d="M294 724h74l-94 -130h-84l-94 130h75l61 -82zM32 56l298 396h-289v68h382v-57l-297 -396h302v-67h-396v56z" />
    <glyph glyph-name="florin" unicode="&#x192;" horiz-adv-x="455" 
d="M203 30q-6 -42 -10 -67q-15 -83 -62.5 -119t-110.5 -36l-58 6l10 68q22 -5 46 -5q46 0 70 30.5t34 102.5l47 341h-72v67h81l17 123q12 89 61 128t115 39l58 -6l-9 -68q-23 5 -47 5q-44 0 -68.5 -25.5t-33.5 -87.5l-14 -108h104v-67h-113z" />
    <glyph glyph-name="Aringacute" unicode="&#x1fa;" horiz-adv-x="630" 
d="M352 998h87l-89 -142h-69zM225 743q0 38 25.5 62.5t63.5 24.5q40 0 65.5 -24t25.5 -62q0 -48 -38 -73l251 -671h-82l-84 227h-274l-84 -227h-82l251 670q-38 25 -38 73zM274 743q0 -19 11 -30.5t30 -11.5t30 11.5t11 31.5q0 18 -11 29.5t-31 11.5q-18 0 -29 -11.5
t-11 -30.5zM315 611l-112 -314h225z" />
    <glyph glyph-name="aringacute" unicode="&#x1fb;" horiz-adv-x="510" 
d="M290 914h87l-89 -142h-69zM166 656q0 38 25.5 62.5t63.5 24.5q40 0 65.5 -24t25.5 -62t-25.5 -63t-64.5 -25t-64.5 24.5t-25.5 62.5zM215 656q0 -19 11 -30.5t30 -11.5t30 11.5t11 31.5q0 18 -11 29.5t-31 11.5q-18 0 -29 -11.5t-11 -30.5zM34 160q0 74 56 122.5
t144 48.5q46 0 82.5 -14t54.5 -33v64q0 54 -34 84.5t-92 30.5q-77 0 -153 -45l-32 58q91 57 192 57q102 0 150 -51t48 -139v-343h-68l-9 44q-50 -57 -141 -57q-86 0 -142 48.5t-56 124.5zM114 161q0 -46 36 -77t95 -31q57 0 93 30.5t36 77.5q0 49 -35.5 78t-94.5 29
q-58 0 -94 -30.5t-36 -76.5z" />
    <glyph glyph-name="AEacute" unicode="&#x1fc;" horiz-adv-x="811" 
d="M519 886h87l-89 -142h-69zM365 700h383v-74h-251v-233h219v-73h-219v-247h261v-73h-342v227h-209l-111 -227h-88zM241 297h175v329h-15z" />
    <glyph glyph-name="aeacute" unicode="&#x1fd;" horiz-adv-x="899" 
d="M456 725h87l-89 -142h-69zM34 160q0 74 56 122.5t144 48.5q46 0 82.5 -14t54.5 -33v64q0 54 -34 84.5t-92 30.5q-77 0 -153 -45l-32 58q91 57 192 57q137 0 175 -101q33 48 83.5 74.5t109.5 26.5q113 0 180 -73.5t67 -192.5v-24h-417q1 -86 52.5 -136t133.5 -50
q104 0 162 81l52 -38q-27 -45 -80.5 -79t-133.5 -34q-73 0 -130.5 28.5t-88.5 82.5q-19 -46 -66 -78.5t-119 -32.5q-86 0 -142 48.5t-56 124.5zM786 302q-4 78 -51 120.5t-115 42.5q-66 0 -113 -43.5t-54 -119.5h333zM114 161q0 -46 36 -77t95 -31q57 0 92 30t35 78
q0 49 -35 78t-93 29t-94 -30.5t-36 -76.5z" />
    <glyph glyph-name="Oslashacute" unicode="&#x1fe;" horiz-adv-x="790" 
d="M416 886h87l-89 -142h-69zM39 350q0 155 102.5 259t254.5 104q109 0 197 -59l52 65l50 -40l-51 -65q109 -104 109 -264q0 -155 -102.5 -259t-255.5 -104q-111 0 -199 58l-51 -65l-50 40l51 65q-107 104 -107 265zM123 350q0 -120 75 -200l346 442q-66 45 -148 45
q-117 0 -195 -82t-78 -205zM669 350q0 118 -76 200l-348 -443q65 -44 151 -44q116 0 194.5 81.5t78.5 205.5z" />
    <glyph glyph-name="oslashacute" unicode="&#x1ff;" horiz-adv-x="609" 
d="M326 725h87l-89 -142h-69zM33 260q0 118 77.5 195.5t194.5 77.5q83 0 148 -42l38 49l46 -37l-38 -48q77 -77 77 -195q0 -117 -77.5 -195t-194.5 -78q-80 0 -142 37l-38 -48l-46 36l37 47q-82 79 -82 201zM114 260q0 -84 50 -139l242 311q-47 29 -102 29
q-83 0 -136.5 -57.5t-53.5 -143.5zM496 260q0 76 -46 132l-241 -308q40 -25 95 -25q84 0 138 57t54 144z" />
    <glyph glyph-name="uni0218" unicode="&#x218;" horiz-adv-x="506" 
d="M103 171q38 -109 153 -109q57 0 92 31t35 85q0 41 -24.5 71.5t-60.5 48t-79 39.5t-79 43.5t-60.5 61t-24.5 92.5q0 77 54.5 128t145.5 51q83 0 131.5 -42.5t66.5 -91.5l-68 -28q-40 88 -131 88q-56 0 -87 -30t-31 -75q0 -44 34 -75.5t82 -53.5t96.5 -47t82.5 -69t34 -106
q0 -85 -58 -140.5t-154 -55.5q-92 0 -145.5 46t-73.5 108zM202 -86q0 22 14.5 37.5t36.5 15.5q25 0 40.5 -16.5t15.5 -42.5q0 -84 -72 -145l-34 33q37 30 44 67q-20 3 -32.5 17.5t-12.5 33.5z" />
    <glyph glyph-name="uni0219" unicode="&#x219;" horiz-adv-x="417" 
d="M84 134q43 -80 130 -80q41 0 68.5 22.5t27.5 60.5q0 33 -27 55t-65 36.5t-76.5 31.5t-65.5 50t-27 82q0 64 47.5 102.5t119.5 38.5q65 0 106.5 -31.5t54.5 -68.5l-58 -33q-33 67 -108 67q-37 0 -61.5 -19.5t-24.5 -52.5q0 -32 27 -53.5t65.5 -35.5t77 -30.5t65.5 -50.5
t27 -84q0 -68 -50 -111t-127 -43q-129 0 -181 111zM162 -86q0 22 14.5 37.5t36.5 15.5q25 0 40.5 -16.5t15.5 -42.5q0 -84 -72 -145l-34 33q37 30 44 67q-20 3 -32.5 17.5t-12.5 33.5z" />
    <glyph glyph-name="uni021A" unicode="&#x21a;" horiz-adv-x="511" 
d="M210 626h-189v74h458v-74h-188v-626h-81v626zM196 -86q0 22 14.5 37.5t36.5 15.5q25 0 40.5 -16.5t15.5 -42.5q0 -84 -72 -145l-34 33q37 30 44 67q-20 3 -32.5 17.5t-12.5 33.5z" />
    <glyph glyph-name="uni021B" unicode="&#x21b;" horiz-adv-x="295" 
d="M74 629h79v-109h114v-67h-114v-268q0 -70 21.5 -95t74.5 -25l22 1v-70q-21 -3 -48 -3q-149 0 -149 185v275h-61v67h61v109zM132 -86q0 22 14.5 37.5t36.5 15.5q25 0 40.5 -16.5t15.5 -42.5q0 -84 -72 -145l-34 33q37 30 44 67q-20 3 -32.5 17.5t-12.5 33.5z" />
    <glyph glyph-name="uni0237" unicode="&#x237;" 
d="M68 520h79v-537q0 -174 -162 -174l-27 2v68q13 -1 22 -1q88 0 88 107v535z" />
    <glyph glyph-name="circumflex" unicode="&#x2c6;" horiz-adv-x="451" 
d="M225 676l-61 -82h-75l94 130h84l94 -130h-74z" />
    <glyph glyph-name="caron" unicode="&#x2c7;" horiz-adv-x="451" 
d="M287 724h74l-94 -130h-84l-94 130h75l61 -82z" />
    <glyph glyph-name="breve" unicode="&#x2d8;" horiz-adv-x="451" 
d="M225 587q-61 0 -94 35.5t-33 90.5h63q0 -71 64 -71q33 0 48.5 19.5t15.5 51.5h63q0 -55 -33 -90.5t-94 -35.5z" />
    <glyph glyph-name="dotaccent" unicode="&#x2d9;" horiz-adv-x="451" 
d="M171 654q0 22 15.5 38t38.5 16t39 -15.5t16 -38.5t-16 -39t-39 -16t-38.5 16t-15.5 39z" />
    <glyph glyph-name="ring" unicode="&#x2da;" horiz-adv-x="451" 
d="M135 664q0 38 25.5 62.5t63.5 24.5q40 0 65.5 -24t25.5 -62t-25.5 -63t-64.5 -25t-64.5 24.5t-25.5 62.5zM184 664q0 -19 11 -30.5t30 -11.5t30 11.5t11 31.5q0 18 -11 29.5t-31 11.5q-18 0 -29 -11.5t-11 -30.5z" />
    <glyph glyph-name="ogonek" unicode="&#x2db;" horiz-adv-x="451" 
d="M154 -101q0 35 23.5 62.5t51.5 38.5h67q-22 -8 -46 -31t-24 -52q0 -24 17.5 -36t43.5 -12v-62q-8 -2 -24 -2q-44 0 -76.5 24.5t-32.5 69.5z" />
    <glyph glyph-name="tilde" unicode="&#x2dc;" horiz-adv-x="451" 
d="M289 601q-28 0 -68 22.5t-58 22.5q-17 0 -27 -12t-11 -32h-57q0 48 26 76.5t68 28.5q27 0 68 -22t57 -22q17 0 27 12t11 32h56q0 -48 -25.5 -77t-66.5 -29z" />
    <glyph glyph-name="hungarumlaut" unicode="&#x2dd;" horiz-adv-x="457" 
d="M159 725h83l-89 -142h-65zM285 725h83l-89 -142h-65z" />
    <glyph glyph-name="Wgrave" unicode="&#x1e80;" horiz-adv-x="942" 
d="M502 744h-70l-88 142h86zM471 581l-170 -581h-90l-200 700h87l161 -597l172 597h80l172 -597l162 597h86l-199 -700h-91z" />
    <glyph glyph-name="wgrave" unicode="&#x1e81;" horiz-adv-x="816" 
d="M447 583h-70l-88 142h86zM408 413l-139 -413h-87l-175 520h86l136 -428q1 3 140 428h78l139 -428l137 428h86l-176 -520h-87z" />
    <glyph glyph-name="Wacute" unicode="&#x1e82;" horiz-adv-x="898" 
d="M495 886h87l-89 -142h-69zM471 581l-170 -581h-90l-200 700h87l161 -597l172 597h80l172 -597l162 597h86l-199 -700h-91z" />
    <glyph glyph-name="wacute" unicode="&#x1e83;" horiz-adv-x="816" 
d="M443 725h87l-89 -142h-69zM408 413l-139 -413h-87l-175 520h86l136 -428q1 3 140 428h78l139 -428l137 428h86l-176 -520h-87z" />
    <glyph glyph-name="Wdieresis" unicode="&#x1e84;" horiz-adv-x="942" 
d="M339 812q0 20 14.5 35t35.5 15t35.5 -14.5t14.5 -35.5t-14 -35.5t-36 -14.5q-21 0 -35.5 14.5t-14.5 35.5zM503 812q0 21 14.5 35.5t35.5 14.5t35.5 -15t14.5 -35q0 -21 -14.5 -35.5t-35.5 -14.5q-22 0 -36 14.5t-14 35.5zM471 581l-170 -581h-90l-200 700h87l161 -597
l172 597h80l172 -597l162 597h86l-199 -700h-91z" />
    <glyph glyph-name="wdieresis" unicode="&#x1e85;" horiz-adv-x="816" 
d="M275 653q0 20 14.5 35t35.5 15t35.5 -14.5t14.5 -35.5t-14 -35.5t-36 -14.5q-21 0 -35.5 14.5t-14.5 35.5zM439 653q0 21 14.5 35.5t35.5 14.5t35.5 -15t14.5 -35q0 -21 -14.5 -35.5t-35.5 -14.5q-22 0 -36 14.5t-14 35.5zM408 413l-139 -413h-87l-175 520h86l136 -428
q1 3 140 428h78l139 -428l137 428h86l-176 -520h-87z" />
    <glyph glyph-name="Ygrave" unicode="&#x1ef2;" horiz-adv-x="532" 
d="M303 744h-70l-88 142h86zM226 328l-217 372h93l164 -295l167 295h90l-217 -372v-328h-80v328z" />
    <glyph glyph-name="ygrave" unicode="&#x1ef3;" horiz-adv-x="508" 
d="M312 583h-70l-88 142h86zM143 -179l75 184l-212 515h86l165 -418l160 418h84l-279 -699h-79z" />
    <glyph glyph-name="endash" unicode="&#x2013;" horiz-adv-x="600" 
d="M41 335h518v-68h-518v68z" />
    <glyph glyph-name="emdash" unicode="&#x2014;" horiz-adv-x="866" 
d="M41 335h783v-68h-783v68z" />
    <glyph glyph-name="quoteleft" unicode="&#x2018;" horiz-adv-x="185" 
d="M148 553q0 -23 -16 -40t-39 -17q-25 0 -42 17t-17 44q0 93 77 159l37 -36q-15 -11 -30.5 -31.5t-18.5 -40.5q22 -4 35.5 -19.5t13.5 -35.5z" />
    <glyph glyph-name="quoteright" unicode="&#x2019;" horiz-adv-x="185" 
d="M37 660q0 23 15.5 39.5t38.5 16.5q26 0 42.5 -16.5t16.5 -43.5q0 -92 -77 -160l-37 36q42 32 49 73q-22 3 -35 19t-13 36z" />
    <glyph glyph-name="quotesinglbase" unicode="&#x201a;" horiz-adv-x="212" 
d="M49 43q0 23 16 39.5t39 16.5q25 0 42 -16.5t17 -43.5q0 -92 -77 -160l-37 36q42 32 49 73q-22 3 -35.5 19t-13.5 36z" />
    <glyph glyph-name="quotedblleft" unicode="&#x201c;" horiz-adv-x="333" 
d="M148 553q0 -23 -16 -40t-39 -17q-25 0 -42 17t-17 44q0 93 77 159l37 -36q-15 -11 -30.5 -31.5t-18.5 -40.5q22 -4 35.5 -19.5t13.5 -35.5zM296 553q0 -23 -16 -40t-39 -17q-25 0 -42 17t-17 44q0 93 77 159l37 -36q-15 -11 -30.5 -31.5t-18.5 -40.5q22 -4 35.5 -19.5
t13.5 -35.5z" />
    <glyph glyph-name="quotedblright" unicode="&#x201d;" horiz-adv-x="333" 
d="M37 660q0 23 15.5 39.5t38.5 16.5q26 0 42.5 -16.5t16.5 -43.5q0 -92 -77 -160l-37 36q42 32 49 73q-22 3 -35 19t-13 36zM185 660q0 23 15.5 39.5t38.5 16.5q26 0 42.5 -16.5t16.5 -43.5q0 -92 -77 -160l-37 36q42 32 49 73q-22 3 -35 19t-13 36z" />
    <glyph glyph-name="quotedblbase" unicode="&#x201e;" horiz-adv-x="333" 
d="M37 43q0 23 15.5 39.5t38.5 16.5q26 0 42.5 -16.5t16.5 -43.5q0 -92 -77 -160l-37 36q42 32 49 73q-22 3 -35 19t-13 36zM185 43q0 23 15.5 39.5t38.5 16.5q26 0 42.5 -16.5t16.5 -43.5q0 -92 -77 -160l-37 36q42 32 49 73q-22 3 -35 19t-13 36z" />
    <glyph glyph-name="dagger" unicode="&#x2020;" horiz-adv-x="378" 
d="M148 456h-115v70h115v174h79v-174h117v-70h-117v-456h-79v456z" />
    <glyph glyph-name="daggerdbl" unicode="&#x2021;" horiz-adv-x="393" 
d="M41 259h115v181h-115v70h115v190h78v-190h118v-70h-118v-181h118v-70h-118v-189h-78v189h-115v70z" />
    <glyph glyph-name="bullet" unicode="&#x2022;" horiz-adv-x="406" 
d="M203 138q-74 0 -123 50t-49 122t49 122t123 50t123 -50t49 -122t-49 -122t-123 -50z" />
    <glyph glyph-name="perthousand" unicode="&#x2030;" horiz-adv-x="1119" 
d="M194 407q-66 0 -110 44t-44 108t44 109t109 45q68 0 113 -44.5t45 -109.5q0 -64 -45 -108t-112 -44zM604 700h82l-534 -700h-81zM195 469q40 0 64 26t24 64q0 39 -25 65.5t-64 26.5q-38 0 -62.5 -26.5t-24.5 -65.5q0 -38 25 -64t63 -26zM405 139q0 64 44 109t110 45
q67 0 112 -44.5t45 -109.5q0 -64 -45 -108t-111 -44q-67 0 -111 43.5t-44 108.5zM767 139q0 64 44.5 109t109.5 45q68 0 113 -44.5t45 -109.5q0 -64 -45 -108t-112 -44t-111 43.5t-44 108.5zM472 139q0 -39 24.5 -65t63.5 -26q40 0 64 26t24 65t-24.5 65t-64.5 26
q-38 0 -62.5 -26t-24.5 -65zM834 139q0 -39 25 -65t64 -26t63.5 26t24.5 65t-25 65t-65 26q-38 0 -62.5 -26t-24.5 -65z" />
    <glyph glyph-name="guilsinglleft" unicode="&#x2039;" horiz-adv-x="270" 
d="M34 292l124 184h77l-124 -184l124 -183h-77z" />
    <glyph glyph-name="guilsinglright" unicode="&#x203a;" horiz-adv-x="270" 
d="M111 109h-77l124 183l-124 184h77l124 -184z" />
    <glyph glyph-name="fraction" unicode="&#x2044;" horiz-adv-x="420" 
d="M-21 -41l389 782h73l-389 -782h-73z" />
    <glyph glyph-name="Euro" unicode="&#x20ac;" horiz-adv-x="627" 
d="M28 310h52q-2 22 -2 40q0 20 2 48h-52v61h64q31 112 118 183t202 71q106 0 171 -43l-34 -66q-58 34 -130 34q-86 0 -150 -49t-89 -130h277l-5 -61h-286q-3 -22 -3 -47q0 -21 3 -41h279l-5 -61h-259q24 -81 87 -133t150 -52q84 0 142 39l33 -65q-22 -18 -69.5 -34.5
t-103.5 -16.5q-125 0 -212.5 74.5t-116.5 187.5h-63v61z" />
    <glyph glyph-name="uni2116" unicode="&#x2116;" horiz-adv-x="1120" 
d="M710 534q0 74 50.5 126.5t127.5 52.5t127.5 -52.5t50.5 -126.5t-50.5 -125.5t-127.5 -51.5t-127.5 51.5t-50.5 125.5zM78 700h81l386 -572v572h80v-700h-80l-386 570v-570h-81v700zM778 534q0 -47 30 -79t80 -32t80 32t30 79t-30 80t-80 33t-80 -33t-30 -80zM724 302h327
v-74h-327v74z" />
    <glyph glyph-name="trademark" unicode="&#x2122;" horiz-adv-x="729" 
d="M122 644h-93v56h246v-56h-93v-304h-60v304zM477 381l-106 218v-259h-58v360h73l120 -250l121 250h72v-360h-57v259l-107 -218h-58z" />
    <glyph glyph-name="minus" unicode="&#x2212;" horiz-adv-x="550" 
d="M40 345h470v-67h-470v67z" />
    <glyph glyph-name="uniF6C3" unicode="&#xf6c3;" horiz-adv-x="0" 
d="M-167 -86q0 22 14.5 37.5t36.5 15.5q25 0 40.5 -16.5t15.5 -42.5q0 -84 -72 -145l-34 33q37 30 44 67q-20 3 -32.5 17.5t-12.5 33.5z" />
    <glyph glyph-name="hyphen.caps" horiz-adv-x="338" 
d="M41 393h255v-74h-255v74z" />
    <glyph glyph-name="endash.caps" horiz-adv-x="600" 
d="M41 393h518v-68h-518v68z" />
    <glyph glyph-name="emdash.caps" horiz-adv-x="866" 
d="M41 393h783v-68h-783v68z" />
    <glyph glyph-name="guillemotleft.caps" horiz-adv-x="428" 
d="M34 357l124 184h77l-124 -184l124 -183h-77zM317 541h77l-125 -184l125 -183h-77l-125 183z" />
    <glyph glyph-name="guillemotright.caps" horiz-adv-x="428" 
d="M236 357l-125 -183h-77l125 183l-125 184h77zM270 174h-77l124 183l-124 184h77l124 -184z" />
    <glyph glyph-name="guilsinglleft.caps" horiz-adv-x="270" 
d="M34 357l124 184h77l-124 -184l124 -183h-77z" />
    <glyph glyph-name="guilsinglright.caps" horiz-adv-x="270" 
d="M236 357l-125 -183h-77l125 183l-125 184h77z" />
    <glyph glyph-name="parenleft.caps" horiz-adv-x="299" 
d="M146 51q0 -88 83 -88v-69q-162 0 -162 161v584q0 161 162 161v-69q-83 0 -83 -88v-592z" />
    <glyph glyph-name="parenright.caps" horiz-adv-x="299" 
d="M153 643q0 88 -83 88v69q162 0 162 -161v-584q0 -161 -162 -161v69q83 0 83 88v592z" />
    <glyph glyph-name="bracketleft.caps" horiz-adv-x="299" 
d="M67 800h162v-69h-83v-768h83v-69h-162v906z" />
    <glyph glyph-name="bracketright.caps" horiz-adv-x="305" 
d="M232 -106h-162v69h83v768h-83v69h162v-906z" />
    <glyph glyph-name="braceleft.caps" horiz-adv-x="341" 
d="M109 198q0 113 -73 113v72q37 0 55 26.5t18 86.5v143q0 161 162 161v-69q-83 0 -83 -88v-165q0 -43 -14 -74t-27.5 -42t-25.5 -15q12 -4 25.5 -15t27.5 -42t14 -74v-165q0 -88 83 -88v-69q-162 0 -162 161v143z" />
    <glyph glyph-name="bar.caps" horiz-adv-x="252" 
d="M88 821h76v-989h-76v989z" />
    <glyph glyph-name="braceright.caps" horiz-adv-x="341" 
d="M232 55q0 -161 -162 -161v69q83 0 83 88v165q0 43 14 74t27.5 42t25.5 15q-12 4 -25.5 15t-27.5 42t-14 74v165q0 88 -83 88v69q162 0 162 -161v-143q0 -60 18 -86.5t55 -26.5v-72q-73 0 -73 -113v-143z" />
    <glyph glyph-name="slash.caps" horiz-adv-x="426" 
d="M328 777h73l-303 -858h-73z" />
    <glyph glyph-name="backslash.caps" horiz-adv-x="426" 
d="M401 -81h-73l-303 858h73z" />
    <glyph glyph-name="exclamdown.caps" horiz-adv-x="258" 
d="M186 657q0 -23 -17 -39.5t-40 -16.5t-39.5 16.5t-16.5 39.5t16.5 39.5t39.5 16.5t40 -16.5t17 -39.5zM171 0h-83l7 524h69z" />
    <glyph glyph-name="questiondown.caps" horiz-adv-x="467" 
d="M312 656q0 -23 -16.5 -39.5t-39.5 -16.5t-39.5 16.5t-16.5 39.5t16.5 40t39.5 17t39.5 -17t16.5 -40zM296 476q0 -37 -18 -70t-43.5 -57.5l-51 -49t-43.5 -56t-18 -67.5q0 -52 32 -84.5t88 -32.5q85 0 123 84l62 -29q-18 -50 -64 -88.5t-123 -38.5q-92 0 -146.5 52
t-54.5 134q0 45 18.5 83t44.5 64t52.5 49.5t45 51.5t18.5 58v44h78v-47z" />
    <glyph glyph-name="periodcentered.caps" horiz-adv-x="226" 
d="M56 357q0 23 16.5 39.5t39.5 16.5t40 -16.5t17 -39.5t-17 -40t-40 -17t-39.5 17t-16.5 40z" />
    <glyph glyph-name="bullet.caps" horiz-adv-x="406" 
d="M203 182q-74 0 -123 50t-49 122t49 122t123 50t123 -50t49 -122t-49 -122t-123 -50z" />
    <glyph glyph-name="zero.tab" horiz-adv-x="554" 
d="M503 350q0 -183 -50.5 -273t-175.5 -90t-175.5 90t-50.5 273t50.5 273t175.5 90t175.5 -90t50.5 -273zM133 350q0 -57 2 -94t10.5 -77t23.5 -63t42 -38t66 -15t65.5 15t41.5 38t23.5 63t10.5 77t2 94t-2 94t-10.5 77t-23.5 63t-41.5 38t-65.5 15q-32 0 -56.5 -9.5
t-40 -29.5t-25 -43t-14.5 -58.5t-6.5 -68t-1.5 -78.5z" />
    <glyph glyph-name="one.tab" horiz-adv-x="554" 
d="M111 0v74h142v544l-137 -62l-29 64l181 80h66v-626h132v-74h-355z" />
    <glyph glyph-name="two.tab" horiz-adv-x="554" 
d="M64 30q0 46 24.5 91.5t61.5 81t80 75t80 74t61.5 77t24.5 84.5q0 55 -34 89.5t-93 34.5q-103 0 -131 -108l-71 20q5 25 17.5 50.5t35.5 52.5t62.5 44t88.5 17q97 0 152.5 -55.5t55.5 -142.5q0 -58 -32.5 -113.5t-79 -98.5t-93 -82t-81 -77.5t-36.5 -71.5h332v-72h-425v30
z" />
    <glyph glyph-name="three.tab" horiz-adv-x="554" 
d="M472 624l-183 -214q36 0 71 -12t66.5 -35.5t51 -64.5t19.5 -94q0 -93 -63.5 -154.5t-158.5 -61.5t-147.5 44.5t-70.5 107.5l69 25q33 -103 148 -103q60 0 100 39.5t40 100.5q0 62 -43 99.5t-121 37.5h-54v65l185 223h-301v73h392v-76z" />
    <glyph glyph-name="four.tab" horiz-adv-x="554" 
d="M28 238l319 462h86v-451h92v-72h-92v-177h-80v177h-325v61zM353 249v346l-236 -346h236z" />
    <glyph glyph-name="five.tab" horiz-adv-x="554" 
d="M275 62q64 0 102 44.5t38 111.5t-39.5 111.5t-107.5 44.5q-62 0 -116 -46l-68 12l15 360h357v-74h-284l-10 -216q50 34 117 34q97 0 157.5 -62t60.5 -160q0 -101 -60.5 -168t-158.5 -67q-92 0 -147 45.5t-74 107.5l70 25q31 -103 148 -103z" />
    <glyph glyph-name="six.tab" horiz-adv-x="554" 
d="M312 713q85 0 158 -50l-37 -62q-51 36 -118 36q-50 0 -86.5 -23.5t-55.5 -63t-27.5 -83t-8.5 -92.5q56 79 156 79q97 0 152.5 -63t55.5 -163q0 -112 -59.5 -176.5t-161.5 -64.5q-227 0 -227 307q0 419 259 419zM283 63q62 0 99.5 42.5t37.5 120.5q0 67 -36 110.5
t-102 43.5q-98 0 -147 -97q0 -49 5.5 -84t20 -68.5t45.5 -50.5t77 -17z" />
    <glyph glyph-name="seven.tab" horiz-adv-x="554" 
d="M497 700v-62l-257 -638h-86l255 626h-352v74h440z" />
    <glyph glyph-name="eight.tab" horiz-adv-x="554" 
d="M276 -13q-102 0 -165.5 58t-63.5 151q0 71 37.5 115.5t81.5 62.5q-35 17 -65.5 57t-30.5 95q0 83 58.5 135t147.5 52q90 0 148.5 -52t58.5 -135q0 -55 -30.5 -95t-65.5 -57q44 -18 81.5 -62.5t37.5 -115.5q0 -93 -64 -151t-166 -58zM276 407q54 0 89.5 34t35.5 82
q0 49 -33 82t-92 33q-58 0 -91 -33t-33 -82q0 -48 35.5 -82t88.5 -34zM276 333q-63 0 -104.5 -37t-41.5 -100q0 -56 39 -95.5t107 -39.5t107 39.5t39 95.5q0 63 -41 100t-105 37z" />
    <glyph glyph-name="nine.tab" horiz-adv-x="554" 
d="M242 -13q-85 0 -158 50l37 62q51 -36 118 -36q50 0 86.5 23.5t55.5 63t27.5 83t8.5 92.5q-56 -79 -156 -79q-97 0 -152.5 63t-55.5 163q0 112 59.5 176.5t161.5 64.5q227 0 227 -307q0 -419 -259 -419zM271 637q-62 0 -99.5 -42.5t-37.5 -120.5q0 -67 36 -110.5
t102 -43.5q98 0 147 97q0 49 -5.5 84t-20 68.5t-45.5 50.5t-77 17z" />
    </font>
</defs>
</svg>
